<svg id="Layer_1" data-name="Layer 1" xmlns="http://www.w3.org/2000/svg" viewBox="0 0 1920 1080"><defs><style>.cls-1{opacity:0.55;}.cls-2{fill:#fff;}</style></defs><title>Circuit Breaker Background_Cloud1</title><g class="cls-1"><path class="cls-2" d="M246.24,390c-4.12.57-12.09,3.35-12.09,3.35s7.2-3.89,9-8.36c1.47-3.71-.65-7.7-7.17-9.49a23.74,23.74,0,0,0-15.39,1c-9.35,3.78-9.8,13.44-9.82,15v0c0-3.93,2-11.28-7.16-11.75-8.91-.45-9,5.23-9,8.21,0,0,0-7.26-4.73-12.46-5-5.44-15.12-7.24-21.78-5-7.93,2.66-7.27,9-4,12.31a54.6,54.6,0,0,0,5,4.69,22,22,0,0,1,2.62,1.73,16.93,16.93,0,0,1-2.62-1.73c-4.94-2.87-10.57-3.71-14.45-1.91-5.91,2.76-.74,6.61,4.32,8.6a23.47,23.47,0,0,1,2.93.95,26,26,0,0,1-2.93-.95c-9.45-2.55-25-2.12-26.74,3-2,6,9.94,8.73,18,8.73,10,0,95.27-.23,105.3-.43,15.24-.3,22.64-7.38,17.58-12.05C267.73,388.49,254.45,388.82,246.24,390Z"/><path class="cls-2" d="M415.8,422.22a33,33,0,0,1-4.11,1.33,36.13,36.13,0,0,1,4.11-1.33c7.12-2.79,14.37-8.2,6.07-12.06-5.43-2.53-13.29-1.36-20.22,2.63a24.16,24.16,0,0,1-3.74,2.47,31.78,31.78,0,0,1,3.74-2.47,76.49,76.49,0,0,0,7-6.54c4.64-4.64,5.56-13.55-5.57-17.28-9.36-3.15-23.59-.62-30.59,7-6.7,7.31-6.63,17.5-6.63,17.5,0-4.18-.2-12.17-12.71-11.53-12.84.66-10,11-10.05,16.51v.31c0-.1,0-.21,0-.31,0-2.14-.66-15.71-13.79-21a33.29,33.29,0,0,0-21.6-1.4c-9.17,2.51-12.14,8.12-10.08,13.33,2.47,6.27,12.59,11.73,12.59,11.73s-11.19-3.9-17-4.7c-11.52-1.58-30.17-2-37.57,4.76-7.11,6.55,3.28,16.49,24.68,16.92,14.08.28,133.73.6,147.85.6,11.25,0,28-3.91,25.21-12.25C450.92,419.24,429.08,418.64,415.8,422.22Z"/></g></svg>