<svg xmlns="http://www.w3.org/2000/svg" xmlns:xlink="http://www.w3.org/1999/xlink" viewBox="0 0 1920 1080"><defs><style>.cls-1{isolation:isolate;}.cls-2{fill:url(#linear-gradient);}.cls-3{fill:#566973;}.cls-4{fill:#565555;}.cls-5{fill:#e3cba2;}.cls-6{fill:#d2ac6b;}.cls-7{fill:#818080;}.cls-8{opacity:0.75;mix-blend-mode:screen;fill:url(#linear-gradient-2);}</style><linearGradient id="linear-gradient" x1="588.85" y1="1073.11" x2="1597.31" y2="-375.41" gradientUnits="userSpaceOnUse"><stop offset="0" stop-color="#f4bf8d"/><stop offset="0.02" stop-color="#f1be8d"/><stop offset="0.32" stop-color="#d0b091"/><stop offset="0.49" stop-color="#c3ab93"/><stop offset="1" stop-color="#fff5dc"/></linearGradient><linearGradient id="linear-gradient-2" x1="960" y1="878.37" x2="960" y2="1096.82" gradientUnits="userSpaceOnUse"><stop offset="0.17" stop-color="#a46a0b"/><stop offset="1" stop-color="#002a59"/></linearGradient></defs><title>Circuit Breaker Background_Sky</title><g class="cls-1"><g id="Layer_1" data-name="Layer 1"><rect class="cls-2" width="1920" height="1080"/><path class="cls-3" d="M1920,850.22v71.52c-17.45-4.21-35.27-6.3-54.12-1.55-23.07,5.81-39.41,21.49-64.89,18.4-20-2.42-36.38-17.64-54.76-25.67-21.59-9.43-46.91-12.16-71.22-8.75s-30.5,19.87-51.27,24.25c-48,10.1-92.55-40.81-142.42-35.16-23.17,2.62-39.07,16.92-62.69,19a212.63,212.63,0,0,1-79.12-8.6c-57-17.6-101.23-34-155.1,3.22-20,13.81-30.63,27.33-56.19,21.55-25.23-5.71-40-31.78-63.45-37.11-51.63-11.77-72.69,39.89-121.86,27-51.28-13.44-98.32-39.44-147.35-2.68-19.09,14.31-24.9,29.5-52.06,29-24.85-.5-43.24-19-64.88-27.61-52.08-20.79-91.42-1.21-137.31,18.86-55.74,24.38-91.06-27.27-145.35-21-52.5,6.06-53.8,64.7-96.78,75.61-52,13.2-78.94-43.74-131.17-35.14-48.19,7.94-62,72.41-111.18,54.67-19.15-6.89-38.94-19-56.83-33.1V850.22Z"/><path class="cls-4" d="M1920,739.05V667.53c-17.45,4.21-35.27,6.3-54.12,1.55-23.07-5.81-39.41-21.5-64.89-18.4-20,2.42-36.38,17.64-54.76,25.67-21.59,9.43-46.91,12.16-71.22,8.75s-30.5-19.87-51.27-24.25c-48-10.1-92.55,40.81-142.42,35.16-23.17-2.62-39.07-16.92-62.69-19a212.63,212.63,0,0,0-79.12,8.61c-57,17.6-101.23,34-155.1-3.22-20-13.81-30.63-27.34-56.19-21.55-25.23,5.71-40,31.78-63.45,37.12-51.63,11.76-72.69-39.9-121.86-27-51.28,13.44-98.32,39.44-147.35,2.67-19.09-14.31-24.9-29.49-52.06-28.94-24.85.5-43.24,19-64.88,27.6-52.08,20.8-91.42,1.22-137.31-18.86-55.74-24.37-91.06,27.28-145.35,21-52.5-6.07-53.8-64.7-96.78-75.62-52-13.2-78.94,43.76-131.17,35.15C119.82,626,106,561.57,56.83,579.3c-19.15,6.9-38.94,19-56.83,33.11V739.05Z"/><rect class="cls-5" y="729.11" width="1920" height="77.24"/><rect class="cls-6" y="773.3" width="1920" height="104.3"/><rect class="cls-7" y="744.1" width="1920" height="93.86"/><rect class="cls-8" y="877.74" width="1920" height="179.48"/></g></g></svg>