<svg id="Layer_1" data-name="Layer 1" xmlns="http://www.w3.org/2000/svg" viewBox="0 0 1920 1080"><defs><style>.cls-1{opacity:0.55;}.cls-2{fill:#fff;}</style></defs><title>Circuit Breaker Background_Cloud2</title><g class="cls-1"><path class="cls-2" d="M1725.27,471.11c4.87.66,14.26,3.94,14.26,3.94s-8.49-4.58-10.57-9.85c-1.73-4.37.77-9.08,8.46-11.19a28,28,0,0,1,18.14,1.18c11,4.45,11.55,15.84,11.57,17.64v0c0-4.63-2.33-13.31,8.44-13.86,10.5-.53,10.67,6.17,10.67,9.68,0,0-.06-8.55,5.57-14.68,5.88-6.41,17.82-8.54,25.68-5.9,9.34,3.14,8.56,10.61,4.67,14.51a64.4,64.4,0,0,1-5.89,5.52,26.91,26.91,0,0,0-3.08,2,19.31,19.31,0,0,0,3.08-2c5.83-3.37,12.46-4.37,17-2.24,7,3.25.88,7.78-5.09,10.13a29.14,29.14,0,0,0-3.45,1.12,30.52,30.52,0,0,0,3.45-1.12c11.14-3,29.48-2.5,31.52,3.53,2.38,7-11.71,10.29-21.16,10.29-11.85,0-112.29-.28-124.12-.51-18-.36-26.68-8.7-20.72-14.2C1700,469.38,1715.6,469.77,1725.27,471.11Z"/><path class="cls-2" d="M1261.44,574.38c4.86.67,14.25,3.94,14.25,3.94s-8.49-4.58-10.57-9.84c-1.72-4.38.77-9.09,8.46-11.19a27.93,27.93,0,0,1,18.14,1.17c11,4.46,11.56,15.84,11.57,17.64v0c0-4.63-2.33-13.3,8.44-13.85,10.5-.54,10.67,6.17,10.67,9.68,0,0-.05-8.56,5.57-14.69,5.88-6.41,17.82-8.53,25.68-5.89,9.34,3.13,8.57,10.61,4.67,14.51a64.4,64.4,0,0,1-5.89,5.52,25.65,25.65,0,0,0-3.08,2,20,20,0,0,0,3.08-2c5.83-3.38,12.46-4.37,17-2.25,7,3.25.88,7.79-5.09,10.13a29.14,29.14,0,0,0-3.45,1.12,26.45,26.45,0,0,0,3.45-1.12c11.15-3,29.48-2.5,31.53,3.54,2.37,7-11.72,10.28-21.17,10.28-11.84,0-112.29-.27-124.12-.51-18-.35-26.68-8.7-20.72-14.19C1236.11,572.66,1251.76,573.05,1261.44,574.38Z"/><path class="cls-2" d="M1525.41,509.13a38.34,38.34,0,0,0,4.85,1.58,43.89,43.89,0,0,0-4.85-1.58c-8.38-3.29-16.93-9.66-7.14-14.21,6.39-3,15.65-1.6,23.82,3.1a27.06,27.06,0,0,0,4.41,2.91,37.71,37.71,0,0,0-4.41-2.91,91.55,91.55,0,0,1-8.19-7.71c-5.46-5.47-6.55-16,6.56-20.37,11-3.71,27.81-.72,36.06,8.27,7.9,8.61,7.82,20.63,7.82,20.63,0-4.93.24-14.34,15-13.59,15.13.77,11.79,12.95,11.85,19.45v0c0-2.51.78-18.51,16.25-24.77a39.26,39.26,0,0,1,25.46-1.65c10.81,3,14.31,9.57,11.88,15.71-2.91,7.39-14.83,13.83-14.83,13.83s13.18-4.6,20-5.54c13.59-1.87,35.57-2.42,44.29,5.61,8.38,7.72-3.87,19.44-29.09,19.94-16.6.33-157.63.71-174.27.71-13.26,0-33-4.61-29.71-14.44C1484,505.63,1509.76,504.92,1525.41,509.13Z"/></g></svg>