<svg id="Layer_1" data-name="Layer 1" xmlns="http://www.w3.org/2000/svg" xmlns:xlink="http://www.w3.org/1999/xlink" viewBox="0 0 1920 1080"><defs><style>.cls-1{fill:#c2c1c5;}.cls-2{fill:url(#linear-gradient);}.cls-3{fill:#b0788a;}.cls-4{fill:#2b1e19;}.cls-5{fill:#565555;}.cls-6{fill:url(#linear-gradient-2);}.cls-7{fill:url(#linear-gradient-3);}.cls-8{fill:url(#linear-gradient-4);}.cls-9{fill:url(#linear-gradient-5);}.cls-10{fill:url(#linear-gradient-6);}.cls-11{fill:url(#linear-gradient-7);}.cls-12{fill:url(#linear-gradient-8);}.cls-13{fill:url(#linear-gradient-9);}.cls-14{fill:url(#linear-gradient-10);}</style><linearGradient id="linear-gradient" x1="1747.09" y1="593.08" x2="1747.09" y2="813.94" gradientUnits="userSpaceOnUse"><stop offset="0" stop-color="#fff"/><stop offset="0.39" stop-color="#ffb810"/><stop offset="0.53" stop-color="#ff5910"/></linearGradient><linearGradient id="linear-gradient-2" x1="1591.17" y1="593.08" x2="1591.17" y2="813.94" xlink:href="#linear-gradient"/><linearGradient id="linear-gradient-3" x1="1668.15" y1="593.07" x2="1668.15" y2="813.94" xlink:href="#linear-gradient"/><linearGradient id="linear-gradient-4" x1="1430.2" y1="593.08" x2="1430.2" y2="813.94" xlink:href="#linear-gradient"/><linearGradient id="linear-gradient-5" x1="1507.18" y1="593.07" x2="1507.18" y2="813.94" xlink:href="#linear-gradient"/><linearGradient id="linear-gradient-6" x1="438.27" y1="593.08" x2="438.27" y2="813.94" xlink:href="#linear-gradient"/><linearGradient id="linear-gradient-7" x1="282.35" y1="593.08" x2="282.35" y2="813.94" xlink:href="#linear-gradient"/><linearGradient id="linear-gradient-8" x1="359.33" y1="593.07" x2="359.33" y2="813.94" xlink:href="#linear-gradient"/><linearGradient id="linear-gradient-9" x1="121.38" y1="593.08" x2="121.38" y2="813.94" xlink:href="#linear-gradient"/><linearGradient id="linear-gradient-10" x1="198.36" y1="593.07" x2="198.36" y2="813.94" xlink:href="#linear-gradient"/></defs><title>Circuit Breaker Background_SuperTrees</title><path class="cls-1" d="M1791.59,674.33c2.09-10.5-30.89-13.07-42.6-13.65v-.16l-2,.07-2-.07v.16c-11.71.58-44.69,3.15-42.6,13.65,0,0,35.75,4.51,35.75,36.65s-12.42,67.19-12.42,67.19h42.59s-12.42-35.06-12.42-67.19S1791.59,674.33,1791.59,674.33Z"/><path class="cls-2" d="M1740.91,709.92c0,.11,0,.22,0,.33a34.11,34.11,0,0,1,5.56-.51,33,33,0,0,1,6.84.72c0-.18,0-.36,0-.54a37.49,37.49,0,0,1,24.52-35.14c-7.12-4-21.79-5.27-28.14-5.62V669s-.56,0-1.53.06c-.43,0-.77,0-1,0l-1,0c-1-.05-1.53-.06-1.53-.06v.14c-6.35.35-21,1.59-28.14,5.62A37.48,37.48,0,0,1,1740.91,709.92Z"/><path class="cls-3" d="M1735.22,716.86c-.81-19-18.45-29.68-32.41-35.2l-1.32-4.55-1.23.53,1,3.42a103.18,103.18,0,0,0-11-3.48l-1.17-5.15-1.25.41,1,4.38c-1.58-.37-2.62-.58-2.88-.62l-.19,1.56c.09,0,2.17.42,5.39,1.31l-1.55.43.28,1.54,4.13-1.14c13.53,4.13,39,14.79,40,36.64h0c-.1,41.07-14.92,60.63-15.08,60.82l1,.81c.15-.2,15.27-20.09,15.34-61.71Z"/><path class="cls-3" d="M1739,716.89a34,34,0,0,0-2.33-12.71,43,43,0,0,0-6.17-10.87,57.62,57.62,0,0,0-4.1-4.71l-.56-4.75-1.29.23.36,3a75.83,75.83,0,0,0-9.82-7.86l.68-2.34-1.22-.53-.62,2.1a101.72,101.72,0,0,0-14.46-7.8l-.62-3.87-1.27.3.46,3c-3.3-1.4-5.57-2.16-6-2.28l-.34,1.52,1.45.52c-1.69.35-3.28.68-3.48.7l0,1.58c.19,0,2.25-.42,6.1-1.24,1.28.53,2.8,1.19,4.51,2l-2.33.87.38,1.52,3.89-1.46c1.86.91,3.87,2,6,3.15l-3.15.56.19,1.56,5-.89c1.7,1,3.43,2.15,5.16,3.36l-3.3.61.2,1.56,4.86-.9q1.8,1.34,3.55,2.8h-3.34v1.58h5.15c8.28,7.46,15,17.33,15.16,29.74-.1,5.66-1.23,41-14,60.9l1,.71a60.4,60.4,0,0,0,5-9.78,97,97,0,0,0,3.66-10.91c1-3.69,1.84-7.42,2.53-11.18q1-5.26,1.62-10.59.57-4.54.91-9.13c.18-2.26.31-4.53.41-6.8C1738.89,719.05,1738.92,718,1739,716.89Z"/><path class="cls-3" d="M1742.25,716.88c.1-8.89-3.25-17.67-7.84-25.12a74.7,74.7,0,0,0-7.33-9.85l-.09-4.55-1.3,0,.06,3c-1.38-1.51-2.78-2.93-4.16-4.27l-.9-6.21-1.28.27.65,4.49c-1.77-1.64-3.49-3.12-5.11-4.44l.33-4.92-1.29-.13-.28,4c-1.68-1.33-3.21-2.46-4.51-3.38l.86-3.54-1.25-.45-.77,3.18c-1.77-1.22-3-1.93-3.19-2.08l-.58,1.42.68.42-4-.73-.19,1.56,7.39,1.36,1.67,1.21-3.91,1.07.29,1.55,5.19-1.43c1.42,1.09,3,2.35,4.61,3.76l-3.84.53.14,1.57,5.27-.73c1.47,1.32,3,2.77,4.53,4.31l-2.28.45.21,1.57,3.37-.67c8.65,9.08,17,21.55,17.61,36,0,37.73-11.23,61.41-11.34,61.65l1.08.57c.06,0,2.15-5.29,2.25-5.57a140,140,0,0,0,4.58-15.59,174.94,174.94,0,0,0,3.89-24.32C1742,727.62,1742.19,722.26,1742.25,716.88Z"/><path class="cls-3" d="M1741.84,688.7l1.49-9.07-1.27-.31-1,6c-.76-3.25-1.56-6.36-2.32-9.2l2.12-4.41-1.12-.81-1.55,3.22c-.76-2.74-1.47-5.16-2.07-7.16l1.11-1.19,2.86,1.22.43-1.5-2.18-.92,2.39-2.55-.86-1.19-4.23,4.54c-.52-1.68-.92-2.93-1.14-3.63l2.43-1.89-.7-1.33-2.62,2-5-2.11-.43,1.49,5,2.12c.23.71.81,2.55,1.59,5.14l-6.68-5.75-.75,1.29,2.76,2.38-2,1.13.55,1.44,2.68-1.52,4.22,3.62c1,3.36,2.14,7.55,3.29,12.15l-3.57-6.19.49-3-1.27-.31-.25,1.49-1.79-3.11-1.07.91,2.66,4.6-1.25-.47-.39,1.51,2.86,1.09,4.71,8.17a154,154,0,0,1,4,25c-1.5-13.35-8-26.28-14.08-35.88l.63-5.63-1.29-.21-.46,4.1c-1.52-2.33-3-4.42-4.34-6.24l1.27-3.3-1.18-.68-1,2.71c-.6-.78-1.15-1.5-1.67-2.16l1.84-3.29-1.08-.89-1.68,3c-1.48-1.82-2.47-3-2.67-3.16l-.87,1.17.35.4-4-.32-.08,1.57,5.53.45c.48.58,1,1.27,1.66,2.08l-3-.13,0,1.58,4.26.18v0c1.13,1.48,2.37,3.18,3.71,5.13h-2.62v1.58h3.69c1.39,2.07,2.83,4.35,4.27,6.79l-2.58-.61-.25,1.55,3.91.94c5.6,9.93,10.68,22.21,10.83,34.31-.12,29.17-9,61-9,61.28l1.16.37c.09-.32,9-32.15,9.11-61.45h0c-.09,40.45-6.91,60.85-7,61.05l1.15.43c.07-.2,7-21,7-62.27h-.06C1745.54,708.1,1743.91,698,1741.84,688.7Z"/><path class="cls-3" d="M1808.22,678.16l-.2-1.56c-.26,0-1.3.25-2.87.62l1-4.38-1.25-.41-1.17,5.15a103.89,103.89,0,0,0-11,3.48l1-3.42-1.23-.53-1.31,4.55c-13.89,5.49-31.4,16.12-32.39,34.89h0v.06l0,.25h0c.08,41.62,15.2,61.51,15.35,61.71l.94-.81c-.15-.19-15-19.75-15.07-60.82h0c.93-21.85,26.43-32.51,40-36.64l4.13,1.14.29-1.54-1.56-.43C1806,678.58,1808.12,678.18,1808.22,678.16Z"/><path class="cls-3" d="M1756.21,716.91c0-1,.08-2,.18-3a34.19,34.19,0,0,1,1.9-8.32,42.82,42.82,0,0,1,8.67-14c.69-.77,1.41-1.52,2.15-2.25l1.12-1.09c.2-.18.89-1.05,1.14-1.05h5.14v-1.58h-3.33c1.16-1,2.35-1.91,3.54-2.79l4.86.89.2-1.56-3.29-.61c1.73-1.21,3.46-2.33,5.16-3.36l5,.89.19-1.56-3.14-.56c2.09-1.19,4.1-2.24,6-3.15l3.89,1.46.39-1.52-2.33-.87c1.7-.79,3.22-1.45,4.5-2,3.85.82,5.92,1.24,6.1,1.24l0-1.58c-.2,0-1.79-.35-3.48-.7l1.45-.52-.33-1.52c-.4.12-2.66.88-6,2.28l.46-3-1.27-.3-.61,3.87a101.76,101.76,0,0,0-14.47,7.8l-.62-2.1-1.22.53.69,2.34a74.51,74.51,0,0,0-9.83,7.87l.36-3-1.29-.23-.56,4.75c-7,7.16-12.29,16.28-12.64,27.51,0,1.91,0,2.54.09,3.67,0,1.38.12,2.75.21,4.13q.35,5.79,1,11.56c.57,4.79,1.32,9.55,2.3,14.27a115.67,115.67,0,0,0,4,14.89,66.88,66.88,0,0,0,6.27,13.47l.26.42,1-.71a64.14,64.14,0,0,1-6.3-13.31,114.88,114.88,0,0,1-4.06-14.83c-1-4.71-1.73-9.47-2.3-14.25-.47-3.84-.81-7.7-1-11.56C1756.31,721.53,1756.17,719.23,1756.21,716.91Z"/><path class="cls-3" d="M1770.51,680.19l3.37.67.21-1.57-2.28-.45c1.53-1.54,3.06-3,4.54-4.31l5.26.73.15-1.57-3.85-.53c1.64-1.41,3.2-2.67,4.61-3.76l5.19,1.43.29-1.55-3.9-1.07c.59-.44,1.15-.84,1.67-1.21l7.38-1.36-.19-1.56-4,.73.68-.42-.57-1.42c-.25.15-1.42.86-3.2,2.08l-.77-3.18-1.25.45.86,3.54c-1.3.92-2.83,2-4.51,3.38l-.27-4-1.3.13.33,4.92c-1.62,1.32-3.34,2.8-5.11,4.44l.65-4.49-1.28-.27-.9,6.21c-1.38,1.34-2.78,2.76-4.16,4.27l.07-3-1.3,0-.1,4.55c0,.32-1.07,1.24-1.3,1.51-.44.55-.89,1.09-1.32,1.64-.88,1.12-1.73,2.27-2.55,3.44a64.48,64.48,0,0,0-4.54,7.48,49.22,49.22,0,0,0-5.34,17.19,32.79,32.79,0,0,0-.22,3.7s.12,4.07.15,4.92c0,1.68.12,3.36.22,5,.18,3.17.43,6.33.78,9.48.59,5.51,1.44,11,2.55,16.4.88,4.28,1.92,8.51,3.15,12.69.85,2.9,1.79,5.78,2.85,8.6.53,1.39,1.07,2.78,1.69,4.13,0,0,.14.32.14.32l1.09-.57c-.11-.23-11.18-23.63-11.34-61C1753.17,702.14,1761.73,689.42,1770.51,680.19Z"/><path class="cls-3" d="M1750.91,716.91c.1-12.16,5.21-24.53,10.84-34.52l3.91-.94-.25-1.55-2.57.61c1.44-2.44,2.87-4.72,4.27-6.79h3.68v-1.58h-2.62c1.34-1.95,2.59-3.64,3.71-5.12v0l4.26-.18,0-1.58-3,.12c.63-.8,1.19-1.49,1.66-2.07l5.54-.45-.09-1.57-4,.32.36-.4-.88-1.17c-.19.21-1.19,1.34-2.67,3.16l-1.68-3-1.08.89,1.84,3.3c-.52.65-1.07,1.37-1.67,2.16l-1-2.72-1.18.68,1.27,3.3c-1.34,1.82-2.81,3.91-4.34,6.24l-.46-4.1-1.29.21.63,5.63c-6.09,9.6-12.58,22.53-14.08,35.87a155.1,155.1,0,0,1,4-25l4.72-8.17,2.86-1.09-.39-1.51-1.25.47,2.66-4.6-1.06-.91-1.79,3.11-.26-1.49-1.27.31.5,3-3.57,6.19c1.15-4.6,2.3-8.79,3.28-12.15l4.22-3.62,2.68,1.52.55-1.44-2-1.13,2.76-2.38-.75-1.29-6.68,5.75c.78-2.59,1.36-4.43,1.59-5.14l5-2.12-.43-1.49-5,2.11-2.62-2-.69,1.33,2.42,1.89c-.22.7-.62,2-1.14,3.63l-4.23-4.54-.86,1.19,2.38,2.55-2.16.92.42,1.5,2.87-1.22,1.1,1.19c-.6,2-1.31,4.42-2.07,7.16l-1.55-3.22-1.12.81,2.13,4.41c-.77,2.84-1.57,6-2.33,9.2l-1-6-1.27.31,1.49,9.07a140.33,140.33,0,0,0-3.55,24.54c.15-14.42.35-27,.61-32.3l3.3-4.62-1-1-2.2,3.06c.39-7,.9-12.85,1.55-15.34l2.37-2.63-.87-1.16-2.18,2.41-2.86-1.68-.33.82-.32-.82-2.86,1.68-2.17-2.41-.88,1.16,2.37,2.63a69.27,69.27,0,0,1,1.22,10.12l-2.11-3-1,1,3.27,4.57c.21,3.48.39,7.33.55,11.25l-1.73-1.86-.86,1.18,2.67,2.88c.5,13.71.65,88.7.65,88.95h2.37c0-.18.08-29.9.32-56.88.55,37.79,6.94,56.89,7,57.09l1.14-.43c-.07-.2-6.88-20.57-7-61.05h0c.16,29.3,9,61.13,9.1,61.45l1.17-.37c-.09-.31-8.9-32-9-61.07Zm-4-7.81c-.19-10.44-.64-28.78-1.63-39.53l2.07-2.79-1-1.06-1.32,1.77a42,42,0,0,0-.67-4.51l2.51-1.48,2.52,1.48a68.27,68.27,0,0,0-1,8.29l-1.29-1.74-1,1.06,2.09,2.81C1747.52,684.29,1747.13,699.83,1747,709.1Z"/><path class="cls-4" d="M1733.79,724c-3.49,28.58-16.38,55.47-16.38,55.47h59.11s-12.9-26.89-16.38-55.47Z"/><polygon class="cls-5" points="1745.76 724.04 1741.91 779.51 1752.02 779.51 1748.17 724.04 1745.76 724.04"/><path class="cls-5" d="M1745,724h-4.13c0,.54-1.34,28.19-12.77,55.47h5.32A214,214,0,0,0,1745,724Z"/><path class="cls-5" d="M1739.11,724H1736a221,221,0,0,1-16,55.47h4.78A218.61,218.61,0,0,0,1739.11,724Z"/><path class="cls-5" d="M1748.89,724H1753c0,.54,1.35,28.19,12.77,55.47h-5.32A215.11,215.11,0,0,1,1748.89,724Z"/><path class="cls-5" d="M1754.82,724h3.1a221,221,0,0,0,16,55.47h-4.77A218.25,218.25,0,0,1,1754.82,724Z"/><path class="cls-1" d="M1635.67,674.33c2.09-10.5-30.89-13.07-42.6-13.65v-.16l-2,.07-2-.07v.16c-11.71.58-44.69,3.15-42.6,13.65,0,0,35.75,4.51,35.75,36.65s-12.43,67.19-12.43,67.19h42.6s-12.42-35.06-12.42-67.19S1635.67,674.33,1635.67,674.33Z"/><path class="cls-6" d="M1585,709.92c0,.11,0,.22,0,.33a34,34,0,0,1,5.56-.51,32.92,32.92,0,0,1,6.83.72c0-.18,0-.36,0-.54a37.49,37.49,0,0,1,24.52-35.14c-7.12-4-21.79-5.27-28.14-5.62V669s-.56,0-1.53.06c-.44,0-.77,0-1,0l-1,0c-1-.05-1.53-.06-1.53-.06v.14c-6.35.35-21,1.59-28.14,5.62A37.49,37.49,0,0,1,1585,709.92Z"/><path class="cls-3" d="M1579.3,716.86c-.81-19-18.45-29.68-32.42-35.2l-1.32-4.55-1.22.53,1,3.42a103.89,103.89,0,0,0-11-3.48l-1.17-5.15-1.25.41,1,4.38c-1.58-.37-2.61-.58-2.87-.62l-.19,1.56c.09,0,2.17.42,5.39,1.31l-1.56.43.29,1.54,4.13-1.14c13.53,4.13,39,14.79,40,36.64h0c-.1,41.07-14.93,60.63-15.08,60.82l1,.81c.15-.2,15.27-20.09,15.34-61.71Z"/><path class="cls-3" d="M1583,716.89a34,34,0,0,0-2.33-12.71,42.43,42.43,0,0,0-6.17-10.87,54,54,0,0,0-4.1-4.71l-.56-4.75-1.28.23.36,3a75.24,75.24,0,0,0-9.83-7.86l.69-2.34-1.22-.53-.62,2.1a101.22,101.22,0,0,0-14.47-7.8l-.61-3.87-1.27.3.46,3c-3.31-1.4-5.57-2.16-6-2.28l-.34,1.52,1.45.52c-1.69.35-3.28.68-3.48.7l0,1.58c.19,0,2.25-.42,6.1-1.24,1.28.53,2.8,1.19,4.5,2l-2.33.87.39,1.52,3.89-1.46c1.86.91,3.86,2,6,3.15l-3.14.56.19,1.56,5-.89c1.7,1,3.44,2.15,5.17,3.36l-3.3.61.2,1.56,4.86-.9q1.8,1.34,3.54,2.8h-3.33v1.58h5.15c8.28,7.46,15,17.33,15.16,29.74-.1,5.66-1.23,41-14,60.9l1,.71a60.4,60.4,0,0,0,5-9.78,97,97,0,0,0,3.66-10.91q1.5-5.54,2.53-11.18,1-5.26,1.62-10.59c.37-3,.68-6.07.91-9.13q.27-3.39.4-6.8C1583,719.05,1583,718,1583,716.89Z"/><path class="cls-3" d="M1586.32,716.88c.1-8.89-3.24-17.67-7.84-25.12a74.63,74.63,0,0,0-7.32-9.85l-.09-4.55-1.31,0,.07,3c-1.38-1.51-2.78-2.93-4.16-4.27l-.9-6.21-1.28.27.65,4.49c-1.77-1.64-3.49-3.12-5.11-4.44l.33-4.92-1.29-.13-.28,4c-1.68-1.33-3.21-2.46-4.51-3.38l.86-3.54-1.25-.45-.77,3.18c-1.77-1.22-2.95-1.93-3.2-2.08l-.57,1.42.67.42-4-.73-.19,1.56,7.39,1.36,1.67,1.21-3.91,1.07.29,1.55,5.19-1.43c1.41,1.09,3,2.35,4.61,3.76l-3.84.53.14,1.57,5.27-.73c1.47,1.32,3,2.77,4.53,4.31l-2.28.45.21,1.57,3.37-.67c8.65,9.08,17,21.55,17.61,36,0,37.73-11.23,61.41-11.34,61.65l1.08.57c.06,0,2.15-5.29,2.25-5.57a140,140,0,0,0,4.58-15.59,174.94,174.94,0,0,0,3.89-24.32C1586.05,727.62,1586.26,722.26,1586.32,716.88Z"/><path class="cls-3" d="M1585.92,688.7l1.49-9.07-1.27-.31-1,6c-.77-3.25-1.56-6.36-2.33-9.2l2.13-4.41-1.12-.81-1.55,3.22c-.76-2.74-1.47-5.16-2.07-7.16l1.1-1.19,2.87,1.22.42-1.5-2.17-.92,2.39-2.55-.86-1.19-4.24,4.54c-.51-1.68-.91-2.93-1.14-3.63l2.43-1.89-.7-1.33-2.61,2-5-2.11-.42,1.49,5,2.12c.23.71.81,2.55,1.59,5.14l-6.68-5.75-.75,1.29,2.76,2.38-2,1.13.55,1.44,2.68-1.52,4.22,3.62c1,3.36,2.13,7.55,3.28,12.15l-3.57-6.19.5-3-1.28-.31-.24,1.49-1.8-3.11-1.06.91,2.66,4.6-1.25-.47-.39,1.51,2.86,1.09,4.71,8.17a154,154,0,0,1,4,25c-1.5-13.35-8-26.28-14.08-35.88l.63-5.63-1.29-.21-.46,4.1c-1.52-2.33-3-4.42-4.34-6.24l1.27-3.3-1.18-.68-1,2.71c-.6-.78-1.15-1.5-1.67-2.16l1.84-3.29-1.08-.89-1.68,3c-1.48-1.82-2.47-3-2.67-3.16l-.87,1.17.35.4-4-.32-.08,1.57,5.53.45c.48.58,1,1.27,1.66,2.08l-3-.13,0,1.58,4.26.18v0c1.12,1.48,2.37,3.18,3.71,5.13h-2.62v1.58h3.68c1.4,2.07,2.83,4.35,4.27,6.79l-2.57-.61-.25,1.55,3.91.94c5.6,9.93,10.68,22.21,10.83,34.31-.12,29.17-9,61-9,61.28l1.16.37c.09-.32,9-32.15,9.11-61.45h0c-.09,40.45-6.91,60.85-7,61.05l1.15.43c.07-.2,7-21,7-62.27h-.06C1589.62,708.1,1588,698,1585.92,688.7Z"/><path class="cls-3" d="M1652.29,678.16l-.2-1.56c-.25,0-1.29.25-2.86.62l1-4.38-1.25-.41-1.17,5.15a103.89,103.89,0,0,0-11,3.48l1-3.42-1.23-.53-1.31,4.55c-13.9,5.49-31.4,16.12-32.39,34.89h0v.06a2.13,2.13,0,0,0,0,.25h0c.07,41.62,15.19,61.51,15.35,61.71l.94-.81c-.15-.19-15-19.75-15.07-60.82h0c.93-21.85,26.42-32.51,40-36.64l4.13,1.14.29-1.54-1.56-.43C1650.12,678.58,1652.19,678.18,1652.29,678.16Z"/><path class="cls-3" d="M1600.29,716.91c0-1,.07-2,.17-3a34.21,34.21,0,0,1,1.91-8.32,43,43,0,0,1,8.66-14q1-1.15,2.16-2.25l1.12-1.09c.19-.18.89-1.05,1.14-1.05h5.14v-1.58h-3.33c1.16-1,2.35-1.91,3.54-2.79l4.86.89.2-1.56-3.29-.61c1.72-1.21,3.46-2.33,5.16-3.36l5,.89.19-1.56-3.14-.56c2.09-1.19,4.09-2.24,6-3.15l3.89,1.46.39-1.52-2.33-.87c1.7-.79,3.22-1.45,4.5-2,3.85.82,5.91,1.24,6.1,1.24l0-1.58c-.2,0-1.79-.35-3.48-.7l1.45-.52-.34-1.52c-.39.12-2.65.88-6,2.28l.47-3-1.28-.3-.61,3.87a102.3,102.3,0,0,0-14.47,7.8l-.61-2.1-1.23.53.69,2.34a74.43,74.43,0,0,0-9.82,7.87l.36-3-1.29-.23-.56,4.75c-7,7.16-12.29,16.28-12.65,27.51,0,1.91,0,2.54.09,3.67.06,1.38.13,2.75.21,4.13q.36,5.79,1,11.56c.57,4.79,1.32,9.55,2.3,14.27a115.67,115.67,0,0,0,4,14.89A66.3,66.3,0,0,0,1613,778.1l.27.42,1-.71a64.14,64.14,0,0,1-6.3-13.31,113.29,113.29,0,0,1-4.06-14.83c-1-4.71-1.73-9.47-2.3-14.25q-.7-5.76-1-11.56C1600.38,721.53,1600.25,719.23,1600.29,716.91Z"/><path class="cls-3" d="M1614.59,680.19l3.37.67.21-1.57-2.28-.45c1.53-1.54,3.06-3,4.53-4.31l5.27.73.14-1.57-3.84-.53c1.64-1.41,3.19-2.67,4.61-3.76l5.19,1.43.29-1.55-3.91-1.07,1.67-1.21,7.39-1.36-.19-1.56-4,.73.68-.42-.57-1.42c-.25.15-1.43.86-3.2,2.08l-.77-3.18-1.25.45.86,3.54c-1.3.92-2.83,2-4.51,3.38l-.28-4-1.29.13.33,4.92c-1.62,1.32-3.34,2.8-5.11,4.44l.65-4.49-1.28-.27-.9,6.21c-1.38,1.34-2.78,2.76-4.16,4.27l.07-3-1.31,0-.09,4.55c0,.32-1.07,1.24-1.3,1.51-.45.55-.89,1.09-1.32,1.64-.88,1.12-1.74,2.27-2.55,3.44a64.48,64.48,0,0,0-4.54,7.48,49.22,49.22,0,0,0-5.34,17.19,32.79,32.79,0,0,0-.22,3.7s.12,4.07.15,4.92q.07,2.52.21,5,.27,4.75.78,9.48c.6,5.51,1.45,11,2.56,16.4q1.32,6.42,3.14,12.69c.86,2.9,1.8,5.78,2.86,8.6.52,1.39,1.07,2.78,1.68,4.13l.15.32,1.09-.57c-.11-.23-11.18-23.63-11.34-61C1597.25,702.14,1605.8,689.42,1614.59,680.19Z"/><path class="cls-3" d="M1595,716.91c.09-12.16,5.21-24.53,10.84-34.52l3.91-.94-.25-1.55-2.57.61c1.44-2.44,2.87-4.72,4.27-6.79h3.68v-1.58h-2.62c1.34-1.95,2.59-3.64,3.71-5.12v0l4.26-.18,0-1.58-3,.12c.63-.8,1.18-1.49,1.66-2.07l5.53-.45-.08-1.57-4,.32.35-.4-.87-1.17c-.2.21-1.19,1.34-2.67,3.16l-1.68-3-1.08.89,1.84,3.3c-.52.65-1.07,1.37-1.67,2.16l-1-2.72-1.17.68,1.27,3.3c-1.35,1.82-2.82,3.91-4.34,6.24l-.46-4.1-1.29.21.63,5.63c-6.09,9.6-12.58,22.53-14.08,35.87a154,154,0,0,1,4-25l4.72-8.17,2.85-1.09-.38-1.51-1.25.47,2.66-4.6-1.07-.91-1.79,3.11-.25-1.49-1.27.31.5,3-3.58,6.19c1.15-4.6,2.31-8.79,3.29-12.15l4.22-3.62,2.68,1.52.55-1.44-2-1.13,2.76-2.38-.75-1.29-6.68,5.75c.78-2.59,1.36-4.43,1.59-5.14l5-2.12-.43-1.49-5,2.11-2.62-2-.7,1.33,2.44,1.89c-.23.7-.63,2-1.15,3.63l-4.23-4.54-.86,1.19,2.38,2.55-2.17.92.43,1.5,2.86-1.22,1.11,1.19c-.6,2-1.31,4.42-2.07,7.16l-1.55-3.22-1.12.81,2.13,4.41c-.77,2.84-1.57,6-2.33,9.2l-1-6-1.27.31,1.49,9.07a140.33,140.33,0,0,0-3.55,24.54c.15-14.42.35-27,.61-32.3l3.3-4.62-1-1-2.19,3.06c.39-7,.89-12.85,1.55-15.34l2.37-2.63-.88-1.16-2.17,2.41-2.86-1.68-.33.82-.32-.82-2.86,1.68-2.17-2.41-.88,1.16,2.37,2.63a70.73,70.73,0,0,1,1.22,10.12l-2.11-3-1,1,3.26,4.57c.22,3.48.4,7.33.56,11.25l-1.74-1.86-.86,1.18,2.68,2.88c.5,13.71.65,88.7.65,88.95h2.37c0-.18.08-29.9.31-56.88.55,37.79,7,56.89,7,57.09l1.14-.43c-.07-.2-6.88-20.57-7-61.05h0c.15,29.3,9,61.13,9.1,61.45L1604,778c-.09-.31-8.9-32-9.06-61.07Zm-4-7.81c-.19-10.44-.65-28.78-1.63-39.53l2.07-2.79-1-1.06-1.32,1.77a42,42,0,0,0-.67-4.51l2.51-1.48,2.52,1.48a68.27,68.27,0,0,0-1,8.29l-1.29-1.74-1,1.06,2.09,2.81C1591.59,684.29,1591.21,699.83,1591,709.1Z"/><path class="cls-4" d="M1577.87,724c-3.49,28.58-16.38,55.47-16.38,55.47h59.11s-12.9-26.89-16.38-55.47Z"/><polygon class="cls-5" points="1589.84 724.04 1585.99 779.51 1596.09 779.51 1592.25 724.04 1589.84 724.04"/><path class="cls-5" d="M1589.11,724H1585c0,.54-1.34,28.19-12.77,55.47h5.32A214.43,214.43,0,0,0,1589.11,724Z"/><path class="cls-5" d="M1583.19,724h-3.1a221,221,0,0,1-16,55.47h4.77A218.25,218.25,0,0,0,1583.19,724Z"/><path class="cls-5" d="M1593,724h4.14c0,.54,1.35,28.19,12.77,55.47h-5.32A214.64,214.64,0,0,1,1593,724Z"/><path class="cls-5" d="M1598.9,724h3.1a221,221,0,0,0,16,55.47h-4.77A218.25,218.25,0,0,1,1598.9,724Z"/><path class="cls-1" d="M1735,637.76c3.14-15.77-46.4-19.63-64-20.5V617s-1.12,0-3,.1c-1.93-.08-3-.1-3-.1v.24c-17.58.87-67.12,4.73-64,20.5,0,0,53.69,6.78,53.69,55S1636,793.72,1636,793.72h64s-18.66-52.65-18.66-100.92S1735,637.76,1735,637.76Z"/><path class="cls-7" d="M1658.87,691.21c0,.17,0,.34,0,.51a49.11,49.11,0,0,1,8.35-.78,49.85,49.85,0,0,1,10.27,1.09c0-.27,0-.54,0-.82a56.32,56.32,0,0,1,36.83-52.78c-10.7-6-32.73-7.91-42.27-8.44v-.21s-.85,0-2.3.09l-1.55-.06-1.54.06c-1.46-.07-2.3-.09-2.3-.09V630c-9.54.53-31.57,2.4-42.27,8.44A56.32,56.32,0,0,1,1658.87,691.21Z"/><path class="cls-3" d="M1650.32,701.64c-1.21-28.5-27.71-44.57-48.69-52.88l-2-6.82-1.84.79,1.48,5.13a158,158,0,0,0-16.58-5.22L1581,634.9l-1.87.63,1.49,6.58c-2.37-.57-3.93-.87-4.31-1l-.3,2.35c.15,0,3.27.64,8.1,2l-2.34.65.43,2.31,6.21-1.71c20.32,6.2,58.61,22.2,60,55h0c-.14,61.69-22.41,91.06-22.64,91.35l1.42,1.21c.23-.29,22.94-30.16,23-92.67Z"/><path class="cls-3" d="M1655.92,701.68a51,51,0,0,0-3.51-19.09,64,64,0,0,0-9.26-16.32,78.49,78.49,0,0,0-6.16-7.08l-.83-7.13-1.94.34.54,4.58A111,111,0,0,0,1620,645.17l1-3.52-1.84-.8-.92,3.16a153.66,153.66,0,0,0-21.73-11.72l-.92-5.81-1.92.45.7,4.44c-5-2.11-8.37-3.25-9-3.44l-.5,2.29c.07,0,.86.29,2.17.78-2.54.53-4.92,1-5.22,1l0,2.37c.28,0,3.38-.63,9.17-1.85,1.92.79,4.21,1.78,6.77,3l-3.51,1.31.58,2.27,5.85-2.19c2.79,1.37,5.8,3,8.94,4.74l-4.73.84.29,2.35,7.56-1.35q3.84,2.31,7.75,5l-4.94.92.29,2.34,7.31-1.35c1.79,1.34,3.57,2.73,5.32,4.2h-5V657h7.73c12.44,11.21,22.56,26,22.77,44.67-.15,8.5-1.84,61.5-21,91.47l1.51,1.07a90.62,90.62,0,0,0,7.49-14.69,141.35,141.35,0,0,0,5.49-16.39c1.52-5.53,2.77-11.14,3.82-16.79q1.45-7.9,2.43-15.9.84-6.84,1.36-13.71.4-5.1.61-10.22C1655.83,704.93,1655.88,703.31,1655.92,701.68Z"/><path class="cls-3" d="M1660.88,701.67c.14-13.36-4.87-26.54-11.78-37.72a112.76,112.76,0,0,0-11-14.81l-.15-6.83-2,.06.1,4.51q-3.12-3.4-6.25-6.42l-1.35-9.32-1.92.41,1,6.73c-2.66-2.46-5.24-4.69-7.67-6.67l.5-7.38-2-.19-.41,6.08c-2.53-2-4.82-3.7-6.78-5.09l1.29-5.31-1.87-.67-1.16,4.77c-2.66-1.83-4.43-2.9-4.8-3.12l-.86,2.13,1,.63-6-1.09-.29,2.34,11.1,2c.78.55,1.61,1.16,2.51,1.82l-5.87,1.61.43,2.32,7.8-2.14c2.13,1.63,4.47,3.52,6.93,5.64l-5.78.81.22,2.35,7.91-1.1c2.22,2,4.51,4.16,6.81,6.48l-3.43.67.31,2.35,5.08-1c13,13.64,25.61,32.38,26.44,54.13,0,56.67-16.87,92.25-17,92.59l1.63.87c.09.05,3.22-8,3.38-8.37a210.29,210.29,0,0,0,6.88-23.42,261.49,261.49,0,0,0,5.84-36.52C1660.47,717.8,1660.78,709.75,1660.88,701.67Z"/><path class="cls-3" d="M1660.27,659.35l2.24-13.63-1.92-.46-1.48,9c-1.15-4.87-2.34-9.55-3.49-13.82l3.19-6.62-1.68-1.21-2.33,4.83c-1.14-4.11-2.21-7.75-3.11-10.76l1.66-1.78,4.3,1.83.64-2.25-3.26-1.38,3.58-3.84-1.28-1.78-6.36,6.81c-.78-2.51-1.38-4.39-1.72-5.44l3.65-2.84-1.05-2-3.93,3.05-7.53-3.17-.64,2.24,7.55,3.19c.35,1.06,1.22,3.82,2.39,7.71l-10-8.63-1.13,1.93,4.15,3.57-3,1.71.82,2.15,4-2.28,6.34,5.45c1.46,5,3.2,11.34,4.93,18.24l-5.36-9.3.75-4.44-1.92-.47-.37,2.23-2.7-4.66-1.59,1.36,4,6.93-1.87-.72-.58,2.27,4.29,1.63,7.07,12.27c2.89,12.44,5.38,26,6,37.55-2.25-20.05-12-39.47-21.15-53.89l1-8.45-1.93-.32-.7,6.16c-2.29-3.49-4.5-6.64-6.52-9.38l1.91-5-1.77-1-1.57,4.07c-.89-1.19-1.72-2.26-2.5-3.25l2.76-5-1.62-1.33-2.52,4.54c-2.23-2.75-3.72-4.43-4-4.75l-1.32,1.75.54.61-6.06-.49-.13,2.37,8.32.67q1.07,1.31,2.49,3.12l-4.47-.19-.06,2.38,6.39.26v0c1.69,2.22,3.56,4.78,5.58,7.69h-3.94v2.38h5.54c2.09,3.12,4.25,6.53,6.41,10.21l-3.87-.93-.38,2.33,5.88,1.41c8.41,14.92,16,33.37,16.27,51.53-.18,43.82-13.47,91.58-13.6,92.06l1.75.54c.14-.48,13.44-48.28,13.67-92.3h0c-.14,60.76-10.37,91.4-10.47,91.7l1.71.65c.11-.31,10.6-31.58,10.6-93.52h-.09C1665.82,688.49,1663.37,673.37,1660.27,659.35Z"/><path class="cls-3" d="M1760,643.51l-.3-2.35c-.39.08-1.94.38-4.31,1l1.49-6.58-1.88-.63-1.76,7.74a159.45,159.45,0,0,0-16.58,5.22l1.49-5.13-1.84-.79-2,6.82c-20.86,8.26-47.16,24.21-48.64,52.42h0v.08c0,.13,0,.25,0,.38h0c.11,62.52,22.82,92.39,23,92.68l1.42-1.21c-.23-.29-22.5-29.66-22.64-91.36h.08c1.39-32.82,39.69-48.83,60-55l6.2,1.71.43-2.31-2.33-.65C1756.69,644.15,1759.81,643.54,1760,643.51Z"/><path class="cls-3" d="M1681.85,701.71c0-1.52.11-3.05.26-4.58a51.73,51.73,0,0,1,2.86-12.49,64.51,64.51,0,0,1,13-21q1.58-1.75,3.23-3.4l1.68-1.63c.3-.28,1.34-1.58,1.72-1.58h7.71v-2.37h-5c1.74-1.47,3.52-2.86,5.32-4.2l7.3,1.35.29-2.34-4.94-.92c2.6-1.81,5.19-3.51,7.75-5l7.56,1.35.28-2.35-4.71-.84c3.13-1.79,6.15-3.37,8.94-4.74l5.84,2.19.57-2.27-3.5-1.31c2.56-1.19,4.85-2.18,6.77-3,5.79,1.22,8.88,1.85,9.17,1.85l0-2.37c-.3,0-2.68-.52-5.22-1,1.31-.49,2.1-.75,2.17-.78l-.5-2.29c-.59.19-4,1.33-9,3.44l.7-4.44-1.92-.45-.92,5.81A153.66,153.66,0,0,0,1717.65,644l-.92-3.16-1.84.8,1,3.52A111.12,111.12,0,0,0,1701.17,657l.54-4.58-1.94-.34-.84,7.13c-10.46,10.75-18.46,24.45-19,41.33,0,2.87.07,3.8.14,5.51.08,2.07.19,4.13.31,6.2q.54,8.7,1.57,17.37c.87,7.18,2,14.34,3.46,21.42a173.35,173.35,0,0,0,6.06,22.37,99.91,99.91,0,0,0,9.42,20.23l.4.63,1.52-1.07a96.1,96.1,0,0,1-9.47-20,170.47,170.47,0,0,1-6.1-22.27c-1.47-7.07-2.6-14.22-3.46-21.4q-1-8.65-1.57-17.36C1682,708.66,1681.79,705.19,1681.85,701.71Z"/><path class="cls-3" d="M1703.32,646.56l5.07,1,.31-2.35-3.42-.67c2.3-2.32,4.59-4.5,6.81-6.48l7.9,1.1.22-2.35-5.77-.81c2.46-2.12,4.8-4,6.92-5.64l7.81,2.14.42-2.32-5.86-1.61c.9-.66,1.73-1.27,2.51-1.82l11.1-2-.29-2.34-6,1.09,1-.63-.86-2.13c-.37.22-2.14,1.29-4.8,3.12l-1.16-4.77-1.87.67,1.29,5.31c-2,1.39-4.25,3.09-6.78,5.09l-.41-6.08-2,.19.5,7.38c-2.43,2-5,4.21-7.67,6.67l1-6.73-1.92-.41-1.35,9.32c-2.08,2-4.18,4.15-6.25,6.42l.1-4.51-2-.06-.15,6.83c0,.49-1.61,1.88-1.95,2.28q-1,1.22-2,2.46-2,2.52-3.84,5.16a97.2,97.2,0,0,0-6.82,11.24,74,74,0,0,0-8,25.82,51.53,51.53,0,0,0-.33,5.56l.23,7.39q.11,3.78.32,7.56.4,7.14,1.17,14.24c.9,8.27,2.17,16.5,3.84,24.64,1.32,6.42,2.88,12.78,4.73,19.06,1.28,4.35,2.69,8.67,4.29,12.91.78,2.09,1.6,4.18,2.52,6.21l.22.48,1.64-.87c-.17-.34-16.79-35.48-17-91.56C1677.28,679.53,1690.13,660.42,1703.32,646.56Z"/><path class="cls-3" d="M1673.89,701.71c.14-18.27,7.82-36.84,16.29-51.85l5.87-1.41-.38-2.33-3.86.93c2.15-3.68,4.31-7.09,6.41-10.21h5.53v-2.38h-3.94c2-2.91,3.89-5.46,5.57-7.68v0l6.39-.26-.06-2.38-4.47.19q1.43-1.82,2.49-3.12l8.31-.67-.12-2.37-6.06.49.54-.61-1.32-1.75c-.29.32-1.78,2-4,4.75l-2.53-4.54-1.62,1.34,2.76,4.94c-.78,1-1.61,2.07-2.5,3.25l-1.58-4.07-1.76,1,1.91,5c-2,2.74-4.23,5.89-6.52,9.38l-.7-6.16-1.93.32,1,8.45c-9.16,14.42-18.9,33.84-21.15,53.89.64-11.56,3.13-25.11,6-37.55l7.08-12.27,4.29-1.63-.58-2.27-1.87.72,4-6.93-1.6-1.36-2.69,4.66-.37-2.23-1.92.47.75,4.44-5.36,9.3c1.72-6.9,3.46-13.2,4.93-18.24l6.33-5.45,4,2.28.82-2.15-3-1.71,4.15-3.57-1.13-1.93-10,8.63c1.16-3.89,2-6.65,2.39-7.71l7.55-3.19-.64-2.24-7.53,3.17-3.93-3.05-1,2,3.65,2.84c-.34,1-1,2.93-1.72,5.44l-6.36-6.81-1.28,1.78,3.57,3.84-3.25,1.38.64,2.25,4.3-1.83,1.66,1.78c-.91,3-2,6.65-3.11,10.76l-2.33-4.83-1.69,1.21,3.2,6.62c-1.15,4.27-2.34,8.95-3.49,13.82l-1.49-9-1.91.46,2.24,13.62c-2.74,12.4-5,25.64-5.33,36.86.23-21.66.52-40.57.91-48.51l5-7-1.47-1.55-3.29,4.6c.57-10.51,1.33-19.31,2.32-23l3.56-3.94L1676,615l-3.28,3.63-4.28-2.53-.5,1.23-.49-1.23-4.29,2.53-3.27-3.63-1.31,1.76,3.56,3.94c.73,2.76,1.33,8.28,1.83,15.2l-3.17-4.43-1.47,1.56,4.91,6.86c.32,5.22.59,11,.82,16.9l-2.6-2.8-1.29,1.77,4,4.33c.74,20.58,1,133.22,1,133.6l1.77,0,1.78,0c0-.27.13-44.92.48-85.44.82,56.77,10.43,85.46,10.53,85.75l1.72-.65c-.11-.3-10.34-30.89-10.47-91.7h0c.23,44,13.53,91.82,13.67,92.3l1.75-.54c-.13-.48-13.36-48-13.59-91.74ZM1668,690c-.28-15.67-1-43.22-2.45-59.37l3.11-4.19-1.45-1.59-2,2.66a67.92,67.92,0,0,0-1-6.78l3.77-2.23,3.78,2.24a101.57,101.57,0,0,0-1.54,12.44l-1.94-2.61-1.45,1.59,3.14,4.23C1668.79,652.73,1668.22,676.05,1668,690Z"/><path class="cls-4" d="M1647.63,714.61c-5.31,42-25.37,81.64-25.37,81.64h91.41s-20.06-39.63-25.37-81.64Z"/><polygon class="cls-5" points="1666.19 714.61 1660.53 796.25 1675.4 796.25 1669.74 714.61 1666.19 714.61"/><path class="cls-5" d="M1665.13,714.61H1659c0,.78-2,41.49-18.8,81.64h7.83A316.33,316.33,0,0,0,1665.13,714.61Z"/><path class="cls-5" d="M1656.4,714.61h-4.56a324.87,324.87,0,0,1-23.5,81.64h7A321.91,321.91,0,0,0,1656.4,714.61Z"/><path class="cls-5" d="M1670.8,714.61h6.1c0,.78,2,41.49,18.79,81.64h-7.83A316.33,316.33,0,0,1,1670.8,714.61Z"/><path class="cls-5" d="M1679.53,714.61h4.56a324.87,324.87,0,0,0,23.5,81.64h-7A321.56,321.56,0,0,1,1679.53,714.61Z"/><path class="cls-1" d="M1474.7,674.33c2.09-10.5-30.9-13.07-42.6-13.65v-.16l-2,.07-2-.07v.16c-11.7.58-44.68,3.15-42.59,13.65,0,0,35.75,4.51,35.75,36.65s-12.43,67.19-12.43,67.19h42.6S1439,743.11,1439,711,1474.7,674.33,1474.7,674.33Z"/><path class="cls-8" d="M1424,709.92c0,.11,0,.22,0,.33a34,34,0,0,1,5.55-.51,32.94,32.94,0,0,1,6.84.72c0-.18,0-.36,0-.54a37.49,37.49,0,0,1,24.52-35.14c-7.12-4-21.79-5.27-28.14-5.62V669s-.56,0-1.53.06l-1,0c-.26,0-.59,0-1,0-1-.05-1.53-.06-1.53-.06v.14c-6.35.35-21,1.59-28.14,5.62A37.49,37.49,0,0,1,1424,709.92Z"/><path class="cls-3" d="M1418.32,716.86c-.8-19-18.44-29.68-32.41-35.2l-1.32-4.55-1.22.53,1,3.42a103.89,103.89,0,0,0-11-3.48l-1.17-5.15-1.25.41,1,4.38c-1.58-.37-2.61-.58-2.87-.62l-.2,1.56c.1,0,2.18.42,5.4,1.31l-1.56.43.29,1.54,4.13-1.14c13.53,4.13,39,14.79,40,36.64h0c-.1,41.07-14.93,60.63-15.08,60.82l1,.81c.15-.2,15.27-20.09,15.34-61.71Z"/><path class="cls-3" d="M1422.05,716.89a34,34,0,0,0-2.33-12.71,42.73,42.73,0,0,0-6.17-10.87,54,54,0,0,0-4.1-4.71l-.56-4.75-1.28.23.35,3a74.5,74.5,0,0,0-9.82-7.86l.69-2.34-1.22-.53-.62,2.1a101.76,101.76,0,0,0-14.47-7.8l-.61-3.87-1.28.3.47,3c-3.31-1.4-5.57-2.16-6-2.28l-.33,1.52,1.45.52c-1.69.35-3.28.68-3.48.7l0,1.58c.19,0,2.26-.42,6.11-1.24,1.28.53,2.8,1.19,4.5,2l-2.33.87.39,1.52,3.89-1.46c1.86.91,3.86,2,6,3.15l-3.14.56.19,1.56,5-.89c1.7,1,3.43,2.15,5.16,3.36l-3.29.61.19,1.56,4.87-.9q1.8,1.34,3.54,2.8h-3.33v1.58h5.15c8.28,7.46,15,17.33,15.15,29.74-.1,5.66-1.22,41-14,60.9l1,.71a59.56,59.56,0,0,0,5-9.78,95,95,0,0,0,3.66-10.91c1-3.69,1.84-7.42,2.54-11.18q1-5.26,1.62-10.59c.37-3,.68-6.07.91-9.13.17-2.26.31-4.53.4-6.8C1422,719.05,1422,718,1422.05,716.89Z"/><path class="cls-3" d="M1425.35,716.88c.1-8.89-3.24-17.67-7.84-25.12a74.63,74.63,0,0,0-7.32-9.85l-.1-4.55-1.3,0,.07,3q-2.08-2.26-4.16-4.27l-.9-6.21-1.28.27.65,4.49c-1.78-1.64-3.49-3.12-5.11-4.44l.33-4.92-1.3-.13-.27,4c-1.68-1.33-3.21-2.46-4.51-3.38l.85-3.54-1.24-.45-.77,3.18c-1.78-1.22-3-1.93-3.2-2.08l-.57,1.42.67.42-4-.73-.19,1.56,7.38,1.36c.52.37,1.08.77,1.67,1.21l-3.9,1.07.29,1.55,5.19-1.43c1.41,1.09,3,2.35,4.61,3.76l-3.85.53.15,1.57,5.26-.73c1.48,1.32,3,2.77,4.54,4.31l-2.29.45.22,1.57,3.37-.67c8.65,9.08,17,21.55,17.61,36,0,37.73-11.23,61.41-11.35,61.65l1.09.57c.06,0,2.14-5.29,2.25-5.57a140,140,0,0,0,4.58-15.59A176.44,176.44,0,0,0,1424.6,733C1425.08,727.62,1425.29,722.26,1425.35,716.88Z"/><path class="cls-3" d="M1425,688.7l1.49-9.07-1.28-.31-1,6c-.77-3.25-1.56-6.36-2.33-9.2l2.13-4.41-1.12-.81-1.56,3.22c-.75-2.74-1.46-5.16-2.06-7.16l1.1-1.19,2.87,1.22.42-1.5-2.17-.92,2.39-2.55-.86-1.19-4.23,4.54c-.52-1.68-.92-2.93-1.15-3.63l2.43-1.89-.69-1.33-2.62,2-5-2.11-.43,1.49,5,2.12c.24.71.82,2.55,1.6,5.14l-6.68-5.75-.76,1.29,2.77,2.38-2,1.13.55,1.44,2.68-1.52,4.22,3.62c1,3.36,2.13,7.55,3.28,12.15l-3.57-6.19.5-3-1.28-.31-.25,1.49-1.79-3.11-1.06.91,2.65,4.6-1.24-.47-.39,1.51,2.86,1.09,4.71,8.17a155.09,155.09,0,0,1,4,25c-1.5-13.35-8-26.28-14.09-35.88l.64-5.63-1.29-.21-.46,4.1c-1.53-2.33-3-4.42-4.34-6.24l1.27-3.3-1.18-.68-1.05,2.71c-.59-.78-1.14-1.5-1.66-2.16l1.83-3.29-1.07-.89-1.68,3c-1.48-1.82-2.48-3-2.67-3.16l-.88,1.17.36.4-4-.32-.09,1.57,5.54.45c.47.58,1,1.27,1.66,2.08l-3-.13,0,1.58,4.26.18v0c1.12,1.48,2.37,3.18,3.71,5.13h-2.63v1.58h3.7c1.39,2.07,2.83,4.35,4.26,6.79l-2.57-.61-.26,1.55,3.92.94c5.6,9.93,10.68,22.21,10.83,34.31-.12,29.17-9,61-9.06,61.28l1.17.37c.09-.32,9-32.15,9.1-61.45h0c-.09,40.45-6.9,60.85-7,61.05l1.15.43c.07-.2,7-21,7-62.27h-.06C1428.65,708.1,1427,698,1425,688.7Z"/><path class="cls-3" d="M1491.32,678.16l-.2-1.56c-.26,0-1.29.25-2.87.62l1-4.38-1.26-.41-1.17,5.15a104.62,104.62,0,0,0-11,3.48l1-3.42-1.23-.53-1.32,4.55c-13.89,5.49-31.4,16.12-32.38,34.89h0v.06c0,.09,0,.16,0,.25h0c.07,41.62,15.19,61.51,15.34,61.71l1-.81c-.15-.19-15-19.75-15.07-60.82h0c.92-21.85,26.42-32.51,40-36.64l4.13,1.14.28-1.54-1.55-.43C1489.15,678.58,1491.22,678.18,1491.32,678.16Z"/><path class="cls-3" d="M1439.32,716.91c0-1,.07-2,.17-3a34.67,34.67,0,0,1,1.9-8.32,43.16,43.16,0,0,1,8.67-14q1.05-1.15,2.16-2.25l1.12-1.09c.19-.18.89-1.05,1.13-1.05h5.14v-1.58h-3.32q1.74-1.47,3.54-2.79l4.86.89.2-1.56-3.29-.61c1.72-1.21,3.46-2.33,5.15-3.36l5,.89.19-1.56-3.14-.56c2.08-1.19,4.09-2.24,6-3.15l3.89,1.46.38-1.52-2.33-.87c1.71-.79,3.23-1.45,4.51-2,3.85.82,5.91,1.24,6.1,1.24l0-1.58c-.21,0-1.79-.35-3.48-.7l1.44-.52-.33-1.52c-.4.12-2.66.88-6,2.28l.47-3-1.28-.3-.61,3.87a101.76,101.76,0,0,0-14.47,7.8l-.61-2.1-1.23.53.69,2.34a74.43,74.43,0,0,0-9.82,7.87l.36-3-1.29-.23-.56,4.75c-7,7.16-12.29,16.28-12.65,27.51,0,1.91,0,2.54.09,3.67.06,1.38.13,2.75.21,4.13q.36,5.79,1.05,11.56c.57,4.79,1.32,9.55,2.29,14.27a119,119,0,0,0,4,14.89A66.88,66.88,0,0,0,1452,778.1l.27.42,1-.71a64.14,64.14,0,0,1-6.3-13.31,113.29,113.29,0,0,1-4.06-14.83c-1-4.71-1.73-9.47-2.31-14.25q-.69-5.76-1-11.56C1439.41,721.53,1439.28,719.23,1439.32,716.91Z"/><path class="cls-3" d="M1453.61,680.19l3.38.67.21-1.57-2.28-.45c1.53-1.54,3-3,4.53-4.31l5.26.73.15-1.57-3.84-.53c1.64-1.41,3.19-2.67,4.6-3.76l5.2,1.43.29-1.55-3.91-1.07,1.67-1.21,7.39-1.36-.19-1.56-4,.73.68-.42-.58-1.42c-.24.15-1.42.86-3.19,2.08l-.77-3.18-1.25.45.86,3.54c-1.3.92-2.83,2-4.51,3.38l-.28-4-1.3.13.34,4.92c-1.62,1.32-3.34,2.8-5.11,4.44l.65-4.49-1.28-.27-.9,6.21c-1.38,1.34-2.78,2.76-4.16,4.27l.06-3-1.3,0-.09,4.55c0,.32-1.07,1.24-1.3,1.51-.45.55-.89,1.09-1.32,1.64-.89,1.12-1.74,2.27-2.56,3.44a64.48,64.48,0,0,0-4.54,7.48,49.64,49.64,0,0,0-5.34,17.19,35.31,35.31,0,0,0-.22,3.7s.13,4.07.16,4.92c0,1.68.12,3.36.21,5q.27,4.75.78,9.48c.6,5.51,1.45,11,2.56,16.4q1.3,6.42,3.14,12.69c.86,2.9,1.8,5.78,2.86,8.6.52,1.39,1.07,2.78,1.68,4.13l.15.32,1.08-.57c-.11-.23-11.17-23.63-11.33-61C1436.28,702.14,1444.83,689.42,1453.61,680.19Z"/><path class="cls-3" d="M1434,716.91c.09-12.16,5.21-24.53,10.84-34.52l3.91-.94-.25-1.55-2.58.61c1.44-2.44,2.88-4.72,4.27-6.79h3.69v-1.58h-2.62c1.34-1.95,2.58-3.64,3.71-5.12v0l4.26-.18,0-1.58-3,.12c.63-.8,1.18-1.49,1.66-2.07l5.53-.45-.08-1.57-4,.32.35-.4-.87-1.17c-.2.21-1.19,1.34-2.67,3.16l-1.68-3-1.08.89,1.84,3.3c-.53.65-1.07,1.37-1.67,2.16l-1-2.72-1.17.68,1.27,3.3c-1.35,1.82-2.82,3.91-4.35,6.24l-.46-4.1-1.28.21.63,5.63c-6.1,9.6-12.58,22.53-14.08,35.87a154,154,0,0,1,4-25l4.71-8.17,2.86-1.09-.38-1.51-1.25.47,2.66-4.6-1.07-.91-1.79,3.11-.25-1.49-1.27.31.49,3-3.57,6.19c1.15-4.6,2.31-8.79,3.29-12.15l4.22-3.62,2.68,1.52.55-1.44-2-1.13,2.76-2.38-.75-1.29-6.68,5.75c.77-2.59,1.36-4.43,1.59-5.14l5-2.12-.43-1.49-5,2.11-2.62-2-.7,1.33,2.43,1.89c-.23.7-.62,2-1.14,3.63l-4.23-4.54-.86,1.19,2.38,2.55-2.17.92.43,1.5,2.86-1.22,1.11,1.19c-.61,2-1.31,4.42-2.07,7.16l-1.55-3.22-1.13.81,2.13,4.41c-.76,2.84-1.56,6-2.32,9.2l-1-6-1.28.31,1.49,9.07a140.27,140.27,0,0,0-3.54,24.54c.15-14.42.34-27,.6-32.3l3.31-4.62-1-1-2.19,3.06c.38-7,.89-12.85,1.55-15.34l2.37-2.63-.88-1.16-2.18,2.41-2.85-1.68-.33.82-.33-.82-2.85,1.68-2.18-2.41-.87,1.16,2.36,2.63a67.88,67.88,0,0,1,1.22,10.12l-2.1-3-1,1,3.26,4.57c.22,3.48.4,7.33.56,11.25l-1.74-1.86-.86,1.18,2.68,2.88c.5,13.71.65,88.7.65,88.95h2.37c0-.18.08-29.9.31-56.88.55,37.79,7,56.89,7,57.09l1.15-.43c-.07-.2-6.88-20.57-7-61.05h0c.16,29.3,9,61.13,9.11,61.45L1443,778c-.09-.31-8.89-32-9-61.07Zm-4-7.81c-.19-10.44-.65-28.78-1.63-39.53l2.07-2.79-1-1.06-1.31,1.77a41.6,41.6,0,0,0-.68-4.51l2.52-1.48,2.52,1.48a68.27,68.27,0,0,0-1,8.29l-1.29-1.74-1,1.06,2.09,2.81C1430.62,684.29,1430.24,699.83,1430.07,709.1Z"/><path class="cls-4" d="M1416.89,724c-3.48,28.58-16.37,55.47-16.37,55.47h59.1s-12.89-26.89-16.37-55.47Z"/><polygon class="cls-5" points="1428.87 724.04 1425.02 779.51 1435.12 779.51 1431.28 724.04 1428.87 724.04"/><path class="cls-5" d="M1428.14,724H1424c0,.54-1.35,28.19-12.77,55.47h5.32A214.43,214.43,0,0,0,1428.14,724Z"/><path class="cls-5" d="M1422.21,724h-3.1a220.73,220.73,0,0,1-15.95,55.47h4.77A218.61,218.61,0,0,0,1422.21,724Z"/><path class="cls-5" d="M1432,724h4.14c0,.54,1.34,28.19,12.76,55.47h-5.31A214.64,214.64,0,0,1,1432,724Z"/><path class="cls-5" d="M1437.93,724h3.1a220.49,220.49,0,0,0,16,55.47h-4.78A218.61,218.61,0,0,1,1437.93,724Z"/><path class="cls-1" d="M1574,637.76c3.14-15.77-46.4-19.63-64-20.5V617s-1.12,0-3,.1c-1.93-.08-3-.1-3-.1v.24c-17.58.87-67.12,4.73-64,20.5,0,0,53.69,6.78,53.69,55S1475,793.72,1475,793.72h64s-18.66-52.65-18.66-100.92S1574,637.76,1574,637.76Z"/><path class="cls-9" d="M1497.9,691.21c0,.17,0,.34,0,.51a49.11,49.11,0,0,1,8.35-.78A49.92,49.92,0,0,1,1516.5,692c0-.27,0-.54,0-.82a56.34,56.34,0,0,1,36.83-52.78c-10.7-6-32.72-7.91-42.27-8.44v-.21s-.84,0-2.29.09l-1.55-.06-1.55.06c-1.45-.07-2.29-.09-2.29-.09V630c-9.54.53-31.57,2.4-42.27,8.44A56.32,56.32,0,0,1,1497.9,691.21Z"/><path class="cls-3" d="M1489.35,701.64c-1.21-28.5-27.71-44.57-48.69-52.88l-2-6.82-1.84.79,1.49,5.13a158,158,0,0,0-16.58-5.22L1420,634.9l-1.88.63,1.5,6.58c-2.37-.57-3.93-.87-4.31-1l-.3,2.35c.14,0,3.27.64,8.1,2l-2.34.65.43,2.31,6.21-1.71c20.32,6.2,58.61,22.2,60,55h0c-.14,61.69-22.41,91.06-22.64,91.35l1.42,1.21c.23-.29,22.93-30.16,23-92.67Z"/><path class="cls-3" d="M1495,701.68a51,51,0,0,0-3.51-19.09,64,64,0,0,0-9.26-16.32,78.49,78.49,0,0,0-6.16-7.08l-.84-7.13-1.93.34.54,4.58A111,111,0,0,0,1459,645.17l1-3.52-1.84-.8-.92,3.16a153.16,153.16,0,0,0-21.74-11.72l-.91-5.81-1.92.45.7,4.44c-5-2.11-8.37-3.25-9-3.44l-.5,2.29c.06,0,.85.29,2.17.78-2.54.53-4.92,1-5.23,1l.06,2.37c.29,0,3.38-.63,9.17-1.85,1.92.79,4.21,1.78,6.76,3l-3.5,1.31.58,2.27,5.84-2.19c2.79,1.37,5.81,3,8.94,4.74l-4.72.84.28,2.35,7.57-1.35c2.55,1.54,5.16,3.23,7.75,5l-5,.92.3,2.34,7.31-1.35c1.79,1.34,3.57,2.73,5.32,4.2h-5V657h7.73c12.44,11.21,22.56,26,22.76,44.67-.14,8.5-1.83,61.5-21,91.47l1.52,1.07a90.62,90.62,0,0,0,7.49-14.69,143.27,143.27,0,0,0,5.49-16.39c1.52-5.53,2.76-11.14,3.81-16.79q1.47-7.9,2.43-15.9.86-6.84,1.37-13.71c.26-3.4.47-6.81.6-10.22C1494.86,704.93,1494.91,703.31,1495,701.68Z"/><path class="cls-3" d="M1499.9,701.67c.15-13.36-4.86-26.54-11.77-37.72a112.76,112.76,0,0,0-11-14.81l-.15-6.83-2,.06.1,4.51c-2.08-2.27-4.18-4.41-6.25-6.42l-1.35-9.32-1.92.41,1,6.73c-2.66-2.46-5.25-4.69-7.67-6.67l.49-7.38-1.94-.19-.41,6.08c-2.53-2-4.82-3.7-6.78-5.09l1.29-5.31-1.87-.67-1.16,4.77c-2.67-1.83-4.43-2.9-4.8-3.12l-.86,2.13,1,.63-6-1.09-.29,2.34,11.1,2c.78.55,1.61,1.16,2.5,1.82l-5.86,1.61.43,2.32,7.8-2.14c2.12,1.63,4.46,3.52,6.93,5.64l-5.78.81.22,2.35,7.9-1.1c2.23,2,4.51,4.16,6.81,6.48l-3.42.67.31,2.35,5.07-1c13,13.64,25.62,32.38,26.45,54.13,0,56.67-16.87,92.25-17,92.59l1.63.87c.09.05,3.22-8,3.37-8.37a206.11,206.11,0,0,0,6.88-23.42,263,263,0,0,0,5.85-36.52C1499.49,717.8,1499.81,709.75,1499.9,701.67Z"/><path class="cls-3" d="M1499.3,659.35l2.23-13.63-1.91-.46-1.48,9c-1.15-4.87-2.34-9.55-3.5-13.82l3.2-6.62-1.68-1.21-2.34,4.83c-1.13-4.11-2.2-7.75-3.1-10.76l1.66-1.78,4.3,1.83.64-2.25-3.26-1.38,3.58-3.84-1.28-1.78-6.37,6.81c-.77-2.51-1.37-4.39-1.71-5.44l3.65-2.84-1-2-3.94,3.05-7.52-3.17-.64,2.24,7.55,3.19c.35,1.06,1.22,3.82,2.39,7.71l-10-8.63-1.12,1.93,4.14,3.57-3,1.71.83,2.15,4-2.28,6.34,5.45c1.46,5,3.2,11.34,4.93,18.24l-5.36-9.3.74-4.44-1.91-.47-.38,2.23-2.69-4.66-1.6,1.36,4,6.93-1.87-.72-.59,2.27,4.29,1.63,7.08,12.27c2.89,12.44,5.38,26,6,37.55-2.25-20.05-12-39.47-21.15-53.89l.95-8.45-1.94-.32-.69,6.16c-2.29-3.49-4.5-6.64-6.52-9.38l1.91-5-1.77-1-1.57,4.07c-.9-1.19-1.72-2.26-2.5-3.25l2.75-5-1.61-1.33-2.53,4.54c-2.22-2.75-3.71-4.43-4-4.75l-1.32,1.75s.22.24.53.61l-6-.49-.13,2.37,8.31.67c.72.87,1.55,1.91,2.5,3.12l-4.47-.19-.06,2.38,6.39.26v0c1.69,2.22,3.56,4.78,5.58,7.69h-4v2.38h5.54c2.1,3.12,4.26,6.53,6.41,10.21l-3.86-.93-.38,2.33,5.87,1.41c8.42,14.92,16,33.37,16.27,51.53-.17,43.82-13.46,91.58-13.6,92.06l1.76.54c.13-.48,13.43-48.28,13.67-92.3h0c-.13,60.76-10.37,91.4-10.47,91.7l1.72.65c.11-.31,10.59-31.58,10.59-93.52h-.08C1504.85,688.49,1502.4,673.37,1499.3,659.35Z"/><path class="cls-3" d="M1599,643.51l-.3-2.35c-.39.08-1.94.38-4.32,1l1.5-6.58-1.88-.63-1.76,7.74a159.45,159.45,0,0,0-16.58,5.22l1.49-5.13-1.84-.79-2,6.82c-20.86,8.26-47.16,24.21-48.64,52.42h0v.08c0,.13,0,.25,0,.38h0c.11,62.52,22.82,92.39,23,92.68l1.41-1.21c-.22-.29-22.5-29.66-22.63-91.36h.08c1.39-32.82,39.68-48.83,60-55l6.2,1.71.43-2.31-2.33-.65C1595.72,644.15,1598.84,643.54,1599,643.51Z"/><path class="cls-3" d="M1520.88,701.71c0-1.52.11-3.05.26-4.58a51.73,51.73,0,0,1,2.86-12.49,64.34,64.34,0,0,1,13-21q1.56-1.75,3.23-3.4c.55-.55,1.11-1.09,1.68-1.63.3-.28,1.34-1.58,1.72-1.58h7.71v-2.37h-5c1.74-1.47,3.52-2.86,5.31-4.2l7.3,1.35.3-2.34-4.94-.92c2.6-1.81,5.19-3.51,7.75-5l7.56,1.35.28-2.35-4.72-.84c3.14-1.79,6.16-3.37,8.94-4.74l5.85,2.19.57-2.27-3.5-1.31c2.56-1.19,4.85-2.18,6.77-3,5.79,1.22,8.88,1.85,9.16,1.85l.06-2.37c-.3,0-2.69-.52-5.22-1,1.31-.49,2.1-.75,2.17-.78l-.5-2.29c-.6.19-4,1.33-9,3.44l.7-4.44-1.92-.45-.92,5.81A153.11,153.11,0,0,0,1556.68,644l-.92-3.16-1.84.8,1,3.52A111.84,111.84,0,0,0,1540.19,657l.54-4.58-1.93-.34-.84,7.13c-10.46,10.75-18.46,24.45-19,41.33-.06,2.87.07,3.8.14,5.51.08,2.07.18,4.13.31,6.2q.54,8.7,1.57,17.37c.87,7.18,2,14.34,3.45,21.42a175,175,0,0,0,6.07,22.37,100.41,100.41,0,0,0,9.41,20.23s.4.63.4.63l1.52-1.07a96.61,96.61,0,0,1-9.47-20,172,172,0,0,1-6.09-22.27c-1.47-7.07-2.6-14.22-3.46-21.4q-1-8.65-1.58-17.36C1521,708.66,1520.82,705.19,1520.88,701.71Z"/><path class="cls-3" d="M1542.35,646.56l5.07,1,.31-2.35-3.42-.67c2.3-2.32,4.59-4.5,6.81-6.48l7.9,1.1.22-2.35-5.77-.81c2.46-2.12,4.8-4,6.92-5.64l7.8,2.14.43-2.32-5.86-1.61c.89-.66,1.73-1.27,2.51-1.82l11.09-2-.29-2.34-6,1.09,1-.63-.87-2.13c-.36.22-2.13,1.29-4.79,3.12l-1.16-4.77-1.87.67,1.29,5.31c-2,1.39-4.26,3.09-6.78,5.09l-.41-6.08-2,.19.5,7.38c-2.43,2-5,4.21-7.67,6.67l1-6.73-1.92-.41-1.35,9.32c-2.08,2-4.18,4.15-6.25,6.42l.09-4.51-2-.06-.14,6.83c0,.49-1.61,1.88-1.95,2.28-.67.81-1.33,1.63-2,2.46q-2,2.52-3.83,5.16a97.2,97.2,0,0,0-6.82,11.24,74,74,0,0,0-8,25.82,49.09,49.09,0,0,0-.33,5.56s.19,6.11.22,7.39q.12,3.78.33,7.56.4,7.14,1.17,14.24c.9,8.27,2.17,16.5,3.84,24.64,1.32,6.42,2.88,12.78,4.73,19.06,1.28,4.35,2.69,8.67,4.28,12.91.79,2.09,1.61,4.18,2.53,6.21l.22.48,1.64-.87c-.17-.34-16.8-35.48-17-91.56C1516.31,679.53,1529.16,660.42,1542.35,646.56Z"/><path class="cls-3" d="M1512.92,701.71c.14-18.27,7.82-36.84,16.28-51.85l5.87-1.41-.37-2.33-3.86.93c2.15-3.68,4.31-7.09,6.41-10.21h5.53v-2.38h-3.94c2-2.91,3.88-5.46,5.57-7.68v0l6.39-.26-.07-2.38-4.46.19c1-1.21,1.77-2.25,2.49-3.12l8.31-.67-.13-2.37-6,.49.53-.61-1.31-1.75c-.29.32-1.79,2-4,4.75l-2.52-4.54-1.62,1.34,2.76,4.94c-.78,1-1.61,2.07-2.51,3.25l-1.57-4.07-1.76,1,1.91,5c-2,2.74-4.23,5.89-6.53,9.38l-.69-6.16-1.93.32.95,8.45c-9.16,14.42-18.9,33.84-21.16,53.89.64-11.56,3.14-25.11,6-37.55l7.08-12.27,4.29-1.63-.58-2.27-1.88.72,4-6.93-1.6-1.36-2.69,4.66-.38-2.23-1.91.47.74,4.44-5.36,9.3c1.73-6.9,3.47-13.2,4.94-18.24l6.33-5.45,4,2.28.83-2.15-3-1.71,4.14-3.57-1.12-1.93-10,8.63c1.17-3.89,2-6.65,2.4-7.71l7.55-3.19-.65-2.24-7.52,3.17-3.93-3.05-1,2,3.65,2.84c-.35,1-1,2.93-1.72,5.44l-6.36-6.81-1.29,1.78,3.58,3.84-3.26,1.38.65,2.25,4.3-1.83,1.66,1.78c-.91,3-2,6.65-3.11,10.76l-2.33-4.83-1.69,1.21,3.2,6.62c-1.15,4.27-2.34,8.95-3.49,13.82l-1.49-9-1.91.46,2.24,13.62c-2.74,12.4-5,25.64-5.33,36.86.22-21.66.52-40.57.91-48.51l5-7-1.48-1.55-3.29,4.6c.58-10.51,1.34-19.31,2.33-23l3.56-3.94L1515,615l-3.27,3.63-4.29-2.53-.49,1.23-.49-1.23-4.29,2.53-3.27-3.63-1.31,1.76,3.55,3.94c.73,2.76,1.34,8.28,1.83,15.2l-3.16-4.43-1.47,1.56,4.9,6.86c.33,5.22.6,11,.83,16.9l-2.6-2.8-1.29,1.77,4,4.33c.74,20.58,1,133.22,1,133.6l1.77,0,1.78,0c0-.27.12-44.92.48-85.44.82,56.77,10.42,85.46,10.52,85.75l1.72-.65c-.1-.3-10.33-30.89-10.47-91.7h0c.23,44,13.53,91.82,13.67,92.3l1.75-.54c-.13-.48-13.36-48-13.6-91.74ZM1507,690c-.29-15.67-1-43.22-2.45-59.37l3.11-4.19-1.45-1.59-2,2.66a67.47,67.47,0,0,0-1-6.78l3.78-2.23,3.78,2.24a103.19,103.19,0,0,0-1.55,12.44l-1.93-2.61-1.45,1.59,3.14,4.23C1507.82,652.73,1507.25,676.05,1507,690Z"/><path class="cls-4" d="M1486.66,714.61c-5.31,42-25.37,81.64-25.37,81.64h91.4s-20-39.63-25.37-81.64Z"/><polygon class="cls-5" points="1505.22 714.61 1499.56 796.25 1514.42 796.25 1508.77 714.61 1505.22 714.61"/><path class="cls-5" d="M1504.15,714.61h-6.09c0,.78-2,41.49-18.79,81.64h7.83A315.65,315.65,0,0,0,1504.15,714.61Z"/><path class="cls-5" d="M1495.43,714.61h-4.56a324.87,324.87,0,0,1-23.5,81.64h7A321.56,321.56,0,0,0,1495.43,714.61Z"/><path class="cls-5" d="M1509.83,714.61h6.1c0,.78,2,41.49,18.79,81.64h-7.83A315.87,315.87,0,0,1,1509.83,714.61Z"/><path class="cls-5" d="M1518.56,714.61h4.56a325.11,325.11,0,0,0,23.49,81.64h-7A321.14,321.14,0,0,1,1518.56,714.61Z"/><path class="cls-1" d="M482.77,674.33c2.09-10.5-30.89-13.07-42.6-13.65v-.16l-2,.07-2-.07v.16c-11.7.58-44.68,3.15-42.59,13.65,0,0,35.75,4.51,35.75,36.65s-12.43,67.19-12.43,67.19h42.6S447,743.11,447,711,482.77,674.33,482.77,674.33Z"/><path class="cls-10" d="M432.09,709.92c0,.11,0,.22,0,.33a33.89,33.89,0,0,1,5.55-.51,32.94,32.94,0,0,1,6.84.72c0-.18,0-.36,0-.54A37.49,37.49,0,0,1,469,674.78c-7.12-4-21.79-5.27-28.14-5.62V669s-.56,0-1.53.06c-.44,0-.77,0-1,0s-.6,0-1,0c-1-.05-1.53-.06-1.53-.06v.14c-6.35.35-21,1.59-28.14,5.62A37.49,37.49,0,0,1,432.09,709.92Z"/><path class="cls-3" d="M426.4,716.86c-.81-19-18.45-29.68-32.42-35.2l-1.32-4.55-1.22.53,1,3.42a103.89,103.89,0,0,0-11-3.48l-1.17-5.15-1.25.41,1,4.38c-1.58-.37-2.61-.58-2.87-.62l-.2,1.56c.1,0,2.18.42,5.4,1.31l-1.56.43.29,1.54,4.13-1.14c13.53,4.13,39,14.79,40,36.64h0C425,758,410.18,777.57,410,777.76l1,.81c.15-.2,15.27-20.09,15.34-61.71Z"/><path class="cls-3" d="M430.12,716.89a34,34,0,0,0-2.33-12.71,42.43,42.43,0,0,0-6.17-10.87,54,54,0,0,0-4.1-4.71l-.56-4.75-1.28.23.36,3a75.24,75.24,0,0,0-9.83-7.86l.69-2.34-1.22-.53-.62,2.1a101.76,101.76,0,0,0-14.47-7.8l-.61-3.87-1.28.3.47,3c-3.31-1.4-5.57-2.16-6-2.28l-.34,1.52,1.45.52c-1.69.35-3.28.68-3.48.7l0,1.58c.19,0,2.25-.42,6.1-1.24,1.28.53,2.8,1.19,4.5,2l-2.33.87.38,1.52,3.9-1.46c1.86.91,3.86,2,5.95,3.15l-3.14.56.19,1.56,5-.89c1.7,1,3.44,2.15,5.16,3.36l-3.29.61.19,1.56,4.87-.9q1.8,1.34,3.54,2.8H408.6v1.58h5.15c8.28,7.46,15,17.33,15.15,29.74-.09,5.66-1.22,41-14,60.9l1,.71a60.4,60.4,0,0,0,5-9.78,95,95,0,0,0,3.65-10.91c1-3.69,1.84-7.42,2.54-11.18.65-3.51,1.18-7,1.62-10.59.37-3,.68-6.07.91-9.13.17-2.26.31-4.53.4-6.8C430.07,719.05,430.1,718,430.12,716.89Z"/><path class="cls-3" d="M433.42,716.88c.1-8.89-3.24-17.67-7.84-25.12a74.63,74.63,0,0,0-7.32-9.85l-.1-4.55-1.3,0,.07,3q-2.08-2.26-4.16-4.27l-.9-6.21-1.28.27.65,4.49c-1.77-1.64-3.5-3.12-5.11-4.44l.33-4.92-1.3-.13-.27,4c-1.68-1.33-3.21-2.46-4.51-3.38l.85-3.54-1.24-.45-.77,3.18c-1.77-1.22-3-1.93-3.2-2.08l-.57,1.42.68.42-4-.73-.2,1.56,7.39,1.36c.52.37,1.08.77,1.67,1.21l-3.9,1.07.29,1.55,5.19-1.43c1.41,1.09,3,2.35,4.61,3.76l-3.85.53.15,1.57,5.26-.73c1.48,1.32,3,2.77,4.54,4.31l-2.28.45.2,1.57,3.38-.67c8.65,9.08,17,21.55,17.61,36,0,37.73-11.23,61.41-11.35,61.65l1.09.57c.06,0,2.14-5.29,2.25-5.57a140,140,0,0,0,4.58-15.59A176.44,176.44,0,0,0,432.67,733C433.15,727.62,433.36,722.26,433.42,716.88Z"/><path class="cls-3" d="M433,688.7l1.49-9.07-1.27-.31-1,6c-.77-3.25-1.56-6.36-2.33-9.2l2.13-4.41-1.12-.81-1.55,3.22c-.76-2.74-1.47-5.16-2.07-7.16l1.1-1.19,2.87,1.22.42-1.5-2.17-.92,2.39-2.55-.86-1.19-4.24,4.54c-.51-1.68-.91-2.93-1.14-3.63l2.43-1.89-.7-1.33-2.61,2-5-2.11-.42,1.49,5,2.12c.23.71.81,2.55,1.59,5.14l-6.68-5.75-.76,1.29,2.77,2.38-2,1.13.54,1.44,2.69-1.52,4.22,3.62c1,3.36,2.13,7.55,3.28,12.15l-3.57-6.19.5-3-1.28-.31-.25,1.49-1.79-3.11-1.06.91,2.66,4.6L424,675.9l-.39,1.51,2.86,1.09,4.71,8.17a155.09,155.09,0,0,1,4,25c-1.5-13.35-8-26.28-14.08-35.88l.63-5.63-1.29-.21-.46,4.1c-1.53-2.33-3-4.42-4.34-6.24l1.27-3.3-1.18-.68-1,2.71c-.6-.78-1.15-1.5-1.67-2.16l1.83-3.29-1.07-.89-1.68,3c-1.48-1.82-2.48-3-2.67-3.16l-.88,1.17.36.4-4-.32-.09,1.57,5.54.45c.48.58,1,1.27,1.66,2.08l-3-.13,0,1.58,4.26.18v0c1.12,1.48,2.37,3.18,3.71,5.13h-2.62v1.58H418c1.4,2.07,2.84,4.35,4.27,6.79l-2.57-.61-.25,1.55,3.91.94c5.6,9.93,10.68,22.21,10.83,34.31-.12,29.17-9,61-9.06,61.28l1.17.37c.09-.32,8.95-32.15,9.1-61.45h0c-.09,40.45-6.9,60.85-7,61.05l1.15.43c.07-.2,7.05-21,7.05-62.27h-.06C436.71,708.1,435.08,698,433,688.7Z"/><path class="cls-3" d="M499.39,678.16l-.2-1.56c-.25,0-1.29.25-2.87.62l1-4.38-1.25-.41-1.17,5.15a103.18,103.18,0,0,0-11,3.48l1-3.42-1.23-.53-1.32,4.55c-13.89,5.49-31.39,16.12-32.38,34.89h0v.06c0,.09,0,.16,0,.25h0c.07,41.62,15.19,61.51,15.34,61.71l.95-.81c-.15-.19-15-19.75-15.08-60.82h.06c.92-21.85,26.42-32.51,39.95-36.64l4.13,1.14.28-1.54-1.55-.43C497.22,678.58,499.29,678.18,499.39,678.16Z"/><path class="cls-3" d="M447.39,716.91c0-1,.07-2,.17-3a33.75,33.75,0,0,1,1.91-8.32,43,43,0,0,1,8.66-14q1-1.15,2.16-2.25l1.12-1.09c.19-.18.89-1.05,1.14-1.05h5.13v-1.58h-3.32c1.16-1,2.35-1.91,3.54-2.79l4.86.89.2-1.56-3.29-.61c1.72-1.21,3.45-2.33,5.15-3.36l5,.89.19-1.56-3.14-.56c2.09-1.19,4.09-2.24,5.95-3.15l3.89,1.46.38-1.52-2.33-.87c1.71-.79,3.23-1.45,4.51-2,3.85.82,5.91,1.24,6.1,1.24l0-1.58c-.2,0-1.79-.35-3.48-.7l1.45-.52-.34-1.52c-.4.12-2.66.88-6,2.28l.47-3-1.28-.3-.61,3.87a101.76,101.76,0,0,0-14.47,7.8l-.61-2.1-1.22.53.68,2.34a74.43,74.43,0,0,0-9.82,7.87l.36-3-1.29-.23-.56,4.75c-7,7.16-12.29,16.28-12.65,27.51,0,1.91.05,2.54.09,3.67.06,1.38.13,2.75.21,4.13q.36,5.79,1,11.56c.57,4.79,1.32,9.55,2.3,14.27a117.28,117.28,0,0,0,4,14.89,66.88,66.88,0,0,0,6.27,13.47l.27.42,1-.71A64.14,64.14,0,0,1,455,764.5,113.29,113.29,0,0,1,451,749.67c-1-4.71-1.73-9.47-2.31-14.25q-.69-5.76-1-11.56C447.48,721.53,447.35,719.23,447.39,716.91Z"/><path class="cls-3" d="M461.68,680.19l3.38.67.21-1.57-2.28-.45c1.53-1.54,3.05-3,4.53-4.31l5.26.73.15-1.57-3.84-.53c1.64-1.41,3.19-2.67,4.61-3.76l5.19,1.43.29-1.55-3.91-1.07,1.67-1.21,7.39-1.36-.19-1.56-4,.73.68-.42-.58-1.42c-.24.15-1.42.86-3.19,2.08l-.77-3.18-1.25.45.86,3.54c-1.3.92-2.83,2-4.52,3.38l-.27-4-1.29.13.33,4.92c-1.62,1.32-3.34,2.8-5.11,4.44l.65-4.49-1.28-.27-.9,6.21c-1.38,1.34-2.78,2.76-4.16,4.27l.06-3-1.3,0-.1,4.55c0,.32-1.06,1.24-1.29,1.51-.45.55-.89,1.09-1.32,1.64-.88,1.12-1.74,2.27-2.56,3.44a65.9,65.9,0,0,0-4.54,7.48A49.41,49.41,0,0,0,443,713.17a32.81,32.81,0,0,0-.23,3.7s.13,4.07.15,4.92c.05,1.68.13,3.36.22,5q.27,4.75.78,9.48c.6,5.51,1.45,11,2.56,16.4q1.31,6.42,3.14,12.69c.86,2.9,1.8,5.78,2.86,8.6.52,1.39,1.07,2.78,1.68,4.13l.15.32,1.09-.57c-.12-.23-11.18-23.63-11.34-61C444.35,702.14,452.9,689.42,461.68,680.19Z"/><path class="cls-3" d="M442.09,716.91c.09-12.16,5.21-24.53,10.84-34.52l3.91-.94-.25-1.55-2.57.61c1.43-2.44,2.87-4.72,4.27-6.79H462v-1.58h-2.62c1.34-1.95,2.58-3.64,3.71-5.12v0l4.26-.18-.05-1.58-3,.12c.63-.8,1.18-1.49,1.66-2.07l5.53-.45-.08-1.57-4,.32.35-.4-.87-1.17c-.2.21-1.19,1.34-2.67,3.16l-1.68-3-1.08.89,1.84,3.3c-.52.65-1.08,1.37-1.67,2.16l-1.05-2.72-1.17.68,1.27,3.3c-1.34,1.82-2.82,3.91-4.34,6.24l-.46-4.1-1.29.21.63,5.63c-6.1,9.6-12.58,22.53-14.08,35.87a154,154,0,0,1,4-25l4.71-8.17,2.86-1.09-.39-1.51-1.24.47,2.66-4.6-1.07-.91L450.85,674l-.25-1.49-1.27.31.49,3-3.57,6.19c1.15-4.6,2.31-8.79,3.29-12.15l4.22-3.62,2.68,1.52.55-1.44-2-1.13,2.76-2.38-.75-1.29-6.68,5.75c.77-2.59,1.36-4.43,1.59-5.14l5-2.12-.43-1.49-5,2.11-2.62-2-.7,1.33,2.43,1.89c-.22.7-.63,2-1.14,3.63l-4.23-4.54-.86,1.19,2.38,2.55-2.17.92L445,667l2.86-1.22L449,667c-.6,2-1.31,4.42-2.07,7.16l-1.55-3.22-1.12.81,2.12,4.41c-.76,2.84-1.56,6-2.32,9.2l-1-6-1.27.31,1.49,9.07a139.39,139.39,0,0,0-3.55,24.54c.15-14.42.35-27,.61-32.3l3.3-4.62-1-1-2.19,3.06c.39-7,.89-12.85,1.55-15.34l2.37-2.63-.88-1.16-2.17,2.41-2.86-1.68-.33.82-.33-.82L435,661.62l-2.18-2.41-.87,1.16,2.37,2.63a69.64,69.64,0,0,1,1.21,10.12l-2.1-3-1,1,3.26,4.57c.22,3.48.4,7.33.55,11.25l-1.72-1.86-.87,1.18,2.68,2.88c.49,13.71.65,88.7.65,88.95h2.36c0-.18.09-29.9.32-56.88.55,37.79,6.95,56.89,7,57.09l1.15-.43c-.07-.2-6.88-20.57-7-61.05h0c.15,29.3,9,61.13,9.1,61.45l1.17-.37c-.09-.31-8.9-32-9.06-61.07Zm-3.95-7.81c-.19-10.44-.65-28.78-1.63-39.53l2.07-2.79-1-1.06-1.31,1.77a44.7,44.7,0,0,0-.67-4.51l2.51-1.48,2.52,1.48a68.27,68.27,0,0,0-1,8.29l-1.29-1.74-1,1.06,2.09,2.81C438.69,684.29,438.31,699.83,438.14,709.1Z"/><path class="cls-4" d="M425,724c-3.48,28.58-16.37,55.47-16.37,55.47H467.7S454.8,752.62,451.32,724Z"/><polygon class="cls-5" points="436.94 724.04 433.09 779.51 443.19 779.51 439.35 724.04 436.94 724.04"/><path class="cls-5" d="M436.21,724h-4.13c0,.54-1.35,28.19-12.77,55.47h5.32A214.43,214.43,0,0,0,436.21,724Z"/><path class="cls-5" d="M430.29,724h-3.1a221,221,0,0,1-16,55.47H416A218.25,218.25,0,0,0,430.29,724Z"/><path class="cls-5" d="M440.07,724h4.14c0,.54,1.34,28.19,12.77,55.47h-5.32A214.64,214.64,0,0,1,440.07,724Z"/><path class="cls-5" d="M446,724h3.1a220.49,220.49,0,0,0,16,55.47h-4.78A218.61,218.61,0,0,1,446,724Z"/><path class="cls-1" d="M326.85,674.33c2.08-10.5-30.9-13.07-42.6-13.65v-.16l-2,.07-2-.07v.16c-11.7.58-44.68,3.15-42.6,13.65,0,0,35.76,4.51,35.76,36.65s-12.43,67.19-12.43,67.19h42.6S291.09,743.11,291.09,711,326.85,674.33,326.85,674.33Z"/><path class="cls-11" d="M276.17,709.92c0,.11,0,.22,0,.33a34.11,34.11,0,0,1,5.56-.51,32.94,32.94,0,0,1,6.84.72c0-.18,0-.36,0-.54a37.49,37.49,0,0,1,24.52-35.14c-7.12-4-21.79-5.27-28.14-5.62V669s-.56,0-1.53.06l-1,0c-.26,0-.6,0-1,0-1-.05-1.53-.06-1.53-.06v.14c-6.35.35-21,1.59-28.14,5.62A37.49,37.49,0,0,1,276.17,709.92Z"/><path class="cls-3" d="M270.47,716.86c-.8-19-18.44-29.68-32.41-35.2l-1.32-4.55-1.22.53,1,3.42a103.89,103.89,0,0,0-11-3.48l-1.17-5.15-1.25.41,1,4.38c-1.58-.37-2.61-.58-2.87-.62l-.2,1.56c.1,0,2.18.42,5.4,1.31l-1.56.43.29,1.54,4.13-1.14c13.53,4.13,39,14.79,40,36.64h0c-.09,41.07-14.92,60.63-15.07,60.82l.94.81c.16-.2,15.28-20.09,15.35-61.71Z"/><path class="cls-3" d="M274.2,716.89a34,34,0,0,0-2.33-12.71,43,43,0,0,0-6.17-10.87,54,54,0,0,0-4.1-4.71l-.56-4.75-1.29.23.37,3a75.24,75.24,0,0,0-9.83-7.86l.69-2.34-1.23-.53-.61,2.1a101.76,101.76,0,0,0-14.47-7.8l-.61-3.87-1.28.3.47,3c-3.31-1.4-5.57-2.16-6-2.28l-.33,1.52,1.45.52c-1.69.35-3.28.68-3.48.7l0,1.58c.19,0,2.25-.42,6.11-1.24,1.28.53,2.8,1.19,4.5,2l-2.33.87.38,1.52,3.9-1.46c1.85.91,3.86,2,6,3.15l-3.14.56.18,1.56,5-.89c1.7,1,3.43,2.15,5.16,3.36l-3.29.61.19,1.56,4.87-.9q1.8,1.34,3.54,2.8h-3.33v1.58h5.14c8.28,7.46,15,17.33,15.16,29.74-.1,5.66-1.22,41-14,60.9l1,.71a60.36,60.36,0,0,0,5-9.78,95,95,0,0,0,3.66-10.91c1-3.69,1.84-7.42,2.54-11.18.65-3.51,1.18-7,1.62-10.59q.56-4.54.91-9.13c.17-2.26.31-4.53.4-6.8C274.14,719.05,274.17,718,274.2,716.89Z"/><path class="cls-3" d="M277.5,716.88c.1-8.89-3.24-17.67-7.84-25.12a74.63,74.63,0,0,0-7.32-9.85l-.1-4.55-1.3,0,.07,3q-2.08-2.26-4.17-4.27l-.89-6.21-1.28.27.65,4.49c-1.78-1.64-3.5-3.12-5.11-4.44l.33-4.92-1.3-.13-.27,4c-1.68-1.33-3.21-2.46-4.52-3.38l.86-3.54-1.24-.45-.77,3.18c-1.78-1.22-3-1.93-3.2-2.08l-.57,1.42.67.42-4-.73-.2,1.56,7.39,1.36,1.67,1.21-3.9,1.07.28,1.55,5.2-1.43c1.41,1.09,3,2.35,4.61,3.76l-3.85.53.15,1.57,5.26-.73c1.48,1.32,3,2.77,4.54,4.31l-2.29.45.21,1.57,3.38-.67c8.65,9.08,17.05,21.55,17.61,36,0,37.73-11.23,61.41-11.35,61.65l1.09.57c.06,0,2.14-5.29,2.24-5.57a140,140,0,0,0,4.59-15.59A176.44,176.44,0,0,0,276.75,733C277.23,727.62,277.44,722.26,277.5,716.88Z"/><path class="cls-3" d="M277.1,688.7l1.49-9.07-1.28-.31-1,6c-.77-3.25-1.56-6.36-2.33-9.2l2.13-4.41-1.12-.81-1.56,3.22c-.75-2.74-1.46-5.16-2.07-7.16l1.11-1.19,2.86,1.22.43-1.5-2.17-.92L276,662l-.86-1.19-4.24,4.54c-.51-1.68-.91-2.93-1.14-3.63l2.43-1.89-.7-1.33-2.62,2-5-2.11-.42,1.49,5,2.12c.23.71.82,2.55,1.6,5.14l-6.69-5.75-.75,1.29,2.76,2.38-2,1.13.55,1.44,2.69-1.52,4.21,3.62c1,3.36,2.14,7.55,3.29,12.15l-3.57-6.19.5-3-1.28-.31-.25,1.49-1.79-3.11-1.06.91,2.65,4.6-1.24-.47-.39,1.51,2.86,1.09,4.71,8.17a155.09,155.09,0,0,1,4,25c-1.5-13.35-8-26.28-14.09-35.88l.64-5.63-1.29-.21-.46,4.1c-1.53-2.33-3-4.42-4.35-6.24l1.28-3.3-1.18-.68-1.05,2.71c-.59-.78-1.14-1.5-1.66-2.16l1.83-3.29-1.07-.89-1.68,3c-1.48-1.82-2.48-3-2.67-3.16l-.88,1.17.36.4-4-.32-.09,1.57,5.54.45c.47.58,1,1.27,1.66,2.08l-3-.13,0,1.58,4.26.18v0c1.12,1.48,2.37,3.18,3.71,5.13h-2.63v1.58h3.69c1.4,2.07,2.83,4.35,4.27,6.79l-2.58-.61-.25,1.55,3.92.94c5.6,9.93,10.67,22.21,10.83,34.31-.12,29.17-9,61-9.06,61.28l1.17.37c.09-.32,8.95-32.15,9.1-61.45h0c-.09,40.45-6.9,60.85-7,61.05l1.14.43c.08-.2,7.06-21,7.06-62.27h-.06C280.79,708.1,279.16,698,277.1,688.7Z"/><path class="cls-3" d="M343.47,678.16l-.2-1.56c-.26,0-1.29.25-2.87.62l1-4.38-1.26-.41L339,677.58a104.62,104.62,0,0,0-11,3.48l1-3.42-1.22-.53-1.32,4.55c-13.89,5.49-31.4,16.12-32.38,34.89h0v.06c0,.09,0,.16,0,.25h0c.07,41.62,15.19,61.51,15.34,61.71l1-.81c-.16-.19-15-19.75-15.08-60.82h.06c.92-21.85,26.42-32.51,40-36.64l4.12,1.14.29-1.54-1.55-.43C341.3,678.58,343.37,678.18,343.47,678.16Z"/><path class="cls-3" d="M291.47,716.91c0-1,.07-2,.17-3a34.19,34.19,0,0,1,1.9-8.32,43.16,43.16,0,0,1,8.67-14q1.05-1.15,2.16-2.25c.36-.37.74-.73,1.11-1.09.2-.18.89-1.05,1.14-1.05h5.14v-1.58h-3.32q1.74-1.47,3.54-2.79l4.86.89.19-1.56-3.28-.61c1.72-1.21,3.45-2.33,5.15-3.36l5,.89.19-1.56-3.15-.56c2.09-1.19,4.1-2.24,6-3.15l3.89,1.46.38-1.52-2.33-.87c1.7-.79,3.23-1.45,4.5-2,3.86.82,5.92,1.24,6.11,1.24l0-1.58c-.2,0-1.78-.35-3.47-.7l1.44-.52-.33-1.52c-.4.12-2.66.88-6,2.28l.47-3-1.28-.3-.61,3.87a101.76,101.76,0,0,0-14.47,7.8l-.61-2.1-1.23.53.69,2.34a73.78,73.78,0,0,0-9.82,7.87l.36-3-1.29-.23-.56,4.75c-7,7.16-12.29,16.28-12.65,27.51,0,1.91.05,2.54.09,3.67.06,1.38.13,2.75.21,4.13q.36,5.79,1.05,11.56c.57,4.79,1.32,9.55,2.29,14.27a119,119,0,0,0,4,14.89,66.88,66.88,0,0,0,6.27,13.47l.27.42,1-.71a64.69,64.69,0,0,1-6.31-13.31,114.84,114.84,0,0,1-4.05-14.83c-1-4.71-1.73-9.47-2.31-14.25q-.69-5.76-1-11.56C291.56,721.53,291.43,719.23,291.47,716.91Z"/><path class="cls-3" d="M305.76,680.19l3.38.67.21-1.57-2.28-.45c1.53-1.54,3.05-3,4.53-4.31l5.26.73.15-1.57-3.84-.53c1.63-1.41,3.19-2.67,4.61-3.76l5.19,1.43.28-1.55-3.9-1.07L321,667l7.39-1.36-.19-1.56-4,.73.67-.42-.57-1.42c-.25.15-1.42.86-3.19,2.08l-.77-3.18-1.25.45.86,3.54c-1.31.92-2.83,2-4.52,3.38l-.27-4-1.3.13.34,4.92c-1.62,1.32-3.34,2.8-5.11,4.44l.64-4.49-1.28-.27-.89,6.21q-2.09,2-4.16,4.27l.06-3-1.3,0-.1,4.55c0,.32-1.07,1.24-1.29,1.51-.45.55-.89,1.09-1.32,1.64-.89,1.12-1.74,2.27-2.56,3.44a64.48,64.48,0,0,0-4.54,7.48,49.43,49.43,0,0,0-5.34,17.19,32.79,32.79,0,0,0-.22,3.7s.13,4.07.15,4.92c0,1.68.13,3.36.22,5q.27,4.75.78,9.48c.6,5.51,1.44,11,2.56,16.4q1.31,6.42,3.14,12.69c.85,2.9,1.8,5.78,2.86,8.6.52,1.39,1.07,2.78,1.68,4.13l.15.32,1.08-.57c-.11-.23-11.17-23.63-11.33-61C288.42,702.14,297,689.42,305.76,680.19Z"/><path class="cls-3" d="M286.17,716.91c.09-12.16,5.2-24.53,10.84-34.52l3.91-.94-.25-1.55-2.57.61c1.43-2.44,2.87-4.72,4.26-6.79h3.69v-1.58h-2.62c1.34-1.95,2.58-3.64,3.71-5.12v0l4.25-.18,0-1.58-3,.12c.63-.8,1.18-1.49,1.66-2.07l5.53-.45-.09-1.57-4,.32.35-.4-.88-1.17c-.19.21-1.18,1.34-2.66,3.16l-1.68-3-1.08.89,1.83,3.3c-.51.65-1.07,1.37-1.66,2.16l-1.05-2.72-1.18.68,1.28,3.3c-1.35,1.82-2.82,3.91-4.35,6.24l-.46-4.1-1.28.21.63,5.63c-6.1,9.6-12.59,22.53-14.08,35.87a154,154,0,0,1,4-25l4.71-8.17,2.86-1.09-.39-1.51-1.24.47,2.65-4.6-1.06-.91L294.93,674l-.25-1.49-1.28.31.5,3-3.57,6.19c1.15-4.6,2.31-8.79,3.29-12.15l4.21-3.62,2.69,1.52.55-1.44-2-1.13,2.76-2.38-.75-1.29-6.69,5.75c.78-2.59,1.37-4.43,1.6-5.14l5-2.12-.43-1.49-5,2.11-2.62-2-.7,1.33,2.43,1.89c-.23.7-.63,2-1.14,3.63l-4.24-4.54-.85,1.19,2.38,2.55-2.17.92.43,1.5,2.86-1.22,1.11,1.19c-.61,2-1.31,4.42-2.07,7.16l-1.55-3.22-1.13.81,2.13,4.41c-.76,2.84-1.56,6-2.32,9.2l-1-6-1.28.31,1.49,9.07a140.27,140.27,0,0,0-3.54,24.54c.15-14.42.34-27,.6-32.3l3.31-4.62-1-1-2.19,3.06c.38-7,.89-12.85,1.55-15.34l2.37-2.63-.88-1.16-2.18,2.41-2.85-1.68-.33.82-.33-.82L279,661.62l-2.18-2.41-.88,1.16,2.37,2.63a67.88,67.88,0,0,1,1.22,10.12l-2.1-3-1,1,3.26,4.57c.22,3.48.4,7.33.55,11.25l-1.73-1.86-.86,1.18,2.68,2.88c.49,13.71.65,88.7.65,88.95h2.36c0-.18.09-29.9.32-56.88.55,37.79,6.94,56.89,7,57.09l1.15-.43c-.07-.2-6.89-20.57-7-61.05h0c.16,29.3,9,61.13,9.11,61.45l1.16-.37c-.09-.31-8.89-32-9.05-61.07Zm-3.95-7.81c-.19-10.44-.65-28.78-1.63-39.53l2.07-2.79-1-1.06-1.31,1.77a41.6,41.6,0,0,0-.68-4.51l2.52-1.48,2.52,1.48a68.27,68.27,0,0,0-1,8.29l-1.29-1.74-1,1.06,2.08,2.81C282.77,684.29,282.39,699.83,282.22,709.1Z"/><path class="cls-4" d="M269,724c-3.48,28.58-16.37,55.47-16.37,55.47h59.1S298.88,752.62,295.4,724Z"/><polygon class="cls-5" points="281.01 724.04 277.17 779.51 287.27 779.51 283.42 724.04 281.01 724.04"/><path class="cls-5" d="M280.29,724h-4.14c0,.54-1.34,28.19-12.76,55.47h5.32A214.43,214.43,0,0,0,280.29,724Z"/><path class="cls-5" d="M274.36,724h-3.1a220.49,220.49,0,0,1-16,55.47h4.78A218.19,218.19,0,0,0,274.36,724Z"/><path class="cls-5" d="M284.15,724h4.14c0,.54,1.34,28.19,12.76,55.47h-5.32A214.43,214.43,0,0,1,284.15,724Z"/><path class="cls-5" d="M290.08,724h3.1a220.49,220.49,0,0,0,16,55.47h-4.78A218.61,218.61,0,0,1,290.08,724Z"/><path class="cls-1" d="M426.17,637.76c3.14-15.77-46.4-19.63-64-20.5V617s-1.12,0-3.05.1c-1.93-.08-3.05-.1-3.05-.1v.24c-17.58.87-67.11,4.73-64,20.5,0,0,53.7,6.78,53.7,55s-18.66,100.92-18.66,100.92h64s-18.66-52.65-18.66-100.92S426.17,637.76,426.17,637.76Z"/><path class="cls-12" d="M350.05,691.21c0,.17,0,.34,0,.51a49.11,49.11,0,0,1,8.35-.78A49.85,49.85,0,0,1,368.65,692c0-.27,0-.54,0-.82a56.32,56.32,0,0,1,36.83-52.78c-10.7-6-32.73-7.91-42.27-8.44v-.21s-.84,0-2.29.09l-1.55-.06-1.55.06c-1.45-.07-2.29-.09-2.29-.09V630c-9.54.53-31.57,2.4-42.27,8.44A56.32,56.32,0,0,1,350.05,691.21Z"/><path class="cls-3" d="M341.5,701.64c-1.21-28.5-27.71-44.57-48.69-52.88l-2-6.82-1.84.79,1.49,5.13a158,158,0,0,0-16.58-5.22l-1.76-7.74-1.88.63,1.5,6.58c-2.38-.57-3.93-.87-4.32-1l-.29,2.35c.14,0,3.26.64,8.1,2l-2.34.65.43,2.31,6.21-1.71c20.32,6.2,58.6,22.2,60,55h0c-.14,61.69-22.41,91.06-22.64,91.35l1.42,1.21c.23-.29,22.93-30.16,23.05-92.67Z"/><path class="cls-3" d="M347.1,701.68a51,51,0,0,0-3.51-19.09,64.28,64.28,0,0,0-9.26-16.32,80.1,80.1,0,0,0-6.16-7.08l-.84-7.13-1.93.34.54,4.58a111,111,0,0,0-14.76-11.81l1-3.52-1.83-.8-.93,3.16a152.57,152.57,0,0,0-21.73-11.72l-.91-5.81-1.92.45.7,4.44c-5-2.11-8.37-3.25-9-3.44l-.51,2.29c.07,0,.86.29,2.18.78-2.54.53-4.92,1-5.23,1l.06,2.37c.28,0,3.38-.63,9.17-1.85,1.92.79,4.21,1.78,6.76,3l-3.5,1.31.57,2.27,5.85-2.19c2.79,1.37,5.81,3,8.95,4.74l-4.73.84.28,2.35,7.57-1.35c2.55,1.54,5.15,3.23,7.75,5l-4.95.92.3,2.34,7.31-1.35c1.79,1.34,3.57,2.73,5.32,4.2h-5V657h7.73c12.44,11.21,22.56,26,22.76,44.67-.14,8.5-1.83,61.5-21,91.47l1.52,1.07a90.62,90.62,0,0,0,7.49-14.69,143.27,143.27,0,0,0,5.49-16.39c1.52-5.53,2.76-11.14,3.81-16.79q1.47-7.9,2.43-15.9.84-6.84,1.37-13.71c.26-3.4.47-6.81.6-10.22C347,704.93,347.05,703.31,347.1,701.68Z"/><path class="cls-3" d="M352.05,701.67c.15-13.36-4.86-26.54-11.77-37.72a112.76,112.76,0,0,0-11-14.81l-.15-6.83-1.95.06.1,4.51c-2.08-2.27-4.18-4.41-6.26-6.42l-1.34-9.32-1.92.41,1,6.73c-2.66-2.46-5.25-4.69-7.68-6.67l.5-7.38-1.94-.19-.41,6.08c-2.53-2-4.83-3.7-6.78-5.09l1.29-5.31-1.88-.67-1.15,4.77c-2.67-1.83-4.43-2.9-4.8-3.12l-.86,2.13,1,.63-6-1.09-.29,2.34,11.1,2c.77.55,1.61,1.16,2.5,1.82l-5.86,1.61.43,2.32,7.8-2.14c2.12,1.63,4.46,3.52,6.93,5.64l-5.78.81.22,2.35,7.9-1.1c2.22,2,4.51,4.16,6.81,6.48l-3.42.67.31,2.35,5.07-1c13,13.64,25.61,32.38,26.45,54.13,0,56.67-16.87,92.25-17,92.59l1.63.87c.09.05,3.22-8,3.37-8.37a208.18,208.18,0,0,0,6.88-23.42,263,263,0,0,0,5.85-36.52C351.64,717.8,352,709.75,352.05,701.67Z"/><path class="cls-3" d="M351.45,659.35l2.23-13.63-1.91-.46-1.48,9c-1.15-4.87-2.35-9.55-3.5-13.82l3.2-6.62-1.69-1.21L346,637.46c-1.13-4.11-2.2-7.75-3.1-10.76l1.65-1.78,4.31,1.83.64-2.25-3.26-1.38,3.58-3.84-1.29-1.78-6.36,6.81c-.77-2.51-1.37-4.39-1.71-5.44l3.65-2.84L343,614l-3.94,3.05-7.52-3.17-.64,2.24,7.55,3.19c.34,1.06,1.22,3.82,2.39,7.71l-10-8.63-1.12,1.93,4.14,3.57-3,1.71.83,2.15,4-2.28L342,631c1.47,5,3.21,11.34,4.94,18.24l-5.36-9.3.74-4.44-1.91-.47-.38,2.23-2.69-4.66-1.59,1.36,4,6.93-1.88-.72-.58,2.27,4.29,1.63,7.08,12.27c2.89,12.44,5.38,26,6,37.55-2.25-20.05-12-39.47-21.15-53.89l.95-8.45-1.94-.32-.69,6.16c-2.29-3.49-4.5-6.64-6.52-9.38l1.91-5-1.77-1-1.57,4.07c-.9-1.19-1.72-2.26-2.5-3.25l2.75-5-1.62-1.33L320,621.08c-2.22-2.75-3.71-4.43-4-4.75l-1.32,1.75s.22.24.53.61l-6.05-.49-.13,2.37,8.31.67c.72.87,1.55,1.91,2.5,3.12l-4.47-.19-.06,2.38,6.39.26v0c1.69,2.22,3.56,4.78,5.58,7.69h-3.95v2.38h5.54c2.1,3.12,4.25,6.53,6.41,10.21l-3.86-.93-.38,2.33,5.87,1.41c8.41,14.92,16.05,33.37,16.28,51.53C353,745.21,339.74,793,339.6,793.45l1.76.54c.13-.48,13.43-48.28,13.67-92.3h0c-.13,60.76-10.37,91.4-10.47,91.7l1.72.65c.11-.31,10.59-31.58,10.59-93.52h-.08C357,688.49,354.55,673.37,351.45,659.35Z"/><path class="cls-3" d="M451.13,643.51l-.29-2.35c-.39.08-1.94.38-4.32,1l1.5-6.58-1.88-.63-1.76,7.74a158.7,158.7,0,0,0-16.58,5.22l1.49-5.13-1.84-.79-2,6.82C404.61,657,378.31,673,376.83,701.18h0v.08c0,.13,0,.25,0,.38h.05c.11,62.52,22.82,92.39,23.05,92.68l1.41-1.21c-.22-.29-22.5-29.66-22.64-91.36h.08c1.4-32.82,39.69-48.83,60-55l6.2,1.71.43-2.31-2.33-.65C447.87,644.15,451,643.54,451.13,643.51Z"/><path class="cls-3" d="M373,701.71c0-1.52.11-3.05.26-4.58a51.26,51.26,0,0,1,2.86-12.49,64.34,64.34,0,0,1,13-21q1.56-1.75,3.23-3.4c.55-.55,1.11-1.09,1.68-1.63.3-.28,1.34-1.58,1.71-1.58h7.72v-2.37h-5c1.74-1.47,3.52-2.86,5.31-4.2l7.3,1.35.3-2.34-4.94-.92c2.59-1.81,5.19-3.51,7.74-5l7.57,1.35.28-2.35-4.72-.84c3.14-1.79,6.15-3.37,8.94-4.74l5.85,2.19.57-2.27-3.5-1.31c2.56-1.19,4.85-2.18,6.77-3,5.79,1.22,8.88,1.85,9.16,1.85l.06-2.37c-.3,0-2.69-.52-5.22-1,1.31-.49,2.1-.75,2.17-.78l-.5-2.29c-.6.19-4,1.33-9,3.44l.7-4.44-1.91-.45-.92,5.81A152.57,152.57,0,0,0,408.83,644l-.93-3.16-1.83.8,1,3.52A111.84,111.84,0,0,0,392.34,657l.54-4.58-1.93-.34-.84,7.13c-10.46,10.75-18.46,24.45-19,41.33-.06,2.87.07,3.8.14,5.51.08,2.07.18,4.13.31,6.2q.54,8.7,1.57,17.37c.86,7.18,2,14.34,3.45,21.42a175,175,0,0,0,6.07,22.37,100.41,100.41,0,0,0,9.41,20.23l.4.63,1.52-1.07a96.61,96.61,0,0,1-9.47-20,172,172,0,0,1-6.09-22.27c-1.47-7.07-2.6-14.22-3.46-21.4q-1.05-8.65-1.58-17.36C373.17,708.66,373,705.19,373,701.71Z"/><path class="cls-3" d="M394.5,646.56l5.07,1,.31-2.35-3.42-.67c2.3-2.32,4.59-4.5,6.81-6.48l7.9,1.1.22-2.35-5.77-.81c2.46-2.12,4.8-4,6.92-5.64l7.8,2.14.43-2.32-5.86-1.61c.89-.66,1.73-1.27,2.51-1.82l11.09-2-.29-2.34-6,1.09,1-.63-.87-2.13c-.37.22-2.13,1.29-4.79,3.12l-1.16-4.77-1.87.67,1.29,5.31c-2,1.39-4.26,3.09-6.79,5.09l-.41-6.08-1.94.19.5,7.38c-2.43,2-5,4.21-7.68,6.67l1-6.73-1.93-.41-1.34,9.32c-2.08,2-4.18,4.15-6.25,6.42l.09-4.51-2-.06-.15,6.83c0,.49-1.6,1.88-1.94,2.28-.67.81-1.34,1.63-2,2.46q-2,2.52-3.83,5.16a97.2,97.2,0,0,0-6.82,11.24,74,74,0,0,0-8,25.82,49.09,49.09,0,0,0-.33,5.56s.19,6.11.22,7.39q.12,3.78.33,7.56.4,7.14,1.17,14.24c.9,8.27,2.17,16.5,3.84,24.64,1.32,6.42,2.88,12.78,4.72,19.06,1.29,4.35,2.7,8.67,4.29,12.91.79,2.09,1.61,4.18,2.53,6.21l.22.48,1.63-.87c-.16-.34-16.79-35.48-17-91.56C368.46,679.53,381.31,660.42,394.5,646.56Z"/><path class="cls-3" d="M365.07,701.71c.14-18.27,7.82-36.84,16.28-51.85l5.87-1.41-.37-2.33-3.87.93c2.16-3.68,4.32-7.09,6.41-10.21h5.54v-2.38H391c2-2.91,3.89-5.46,5.57-7.68v0l6.4-.26-.07-2.38-4.46.19c.95-1.21,1.77-2.25,2.49-3.12l8.31-.67-.13-2.37-6.05.49.53-.61-1.31-1.75c-.29.32-1.79,2-4,4.75l-2.53-4.54-1.61,1.34,2.75,4.94c-.77,1-1.6,2.07-2.5,3.25L392.8,622,391,623l1.92,5c-2,2.74-4.24,5.89-6.53,9.38l-.69-6.16-1.93.32.94,8.45c-9.15,14.42-18.89,33.84-21.15,53.89.64-11.56,3.14-25.11,6-37.55L376.69,644l4.29-1.63-.58-2.27-1.88.72,4-6.93-1.6-1.36-2.69,4.66-.38-2.23-1.91.47.74,4.44-5.36,9.3c1.73-6.9,3.47-13.2,4.94-18.24l6.33-5.45,4,2.28.83-2.15-3-1.71,4.15-3.57-1.13-1.93-10,8.63c1.17-3.89,2-6.65,2.39-7.71l7.55-3.19-.64-2.24-7.52,3.17L375.25,614l-1.05,2,3.65,2.84c-.34,1-.94,2.93-1.71,5.44l-6.36-6.81-1.29,1.78,3.58,3.84-3.26,1.38.65,2.25,4.3-1.83,1.66,1.78c-.91,3-2,6.65-3.11,10.76L370,632.63l-1.69,1.21,3.2,6.62c-1.15,4.27-2.35,8.95-3.49,13.82l-1.49-9-1.91.46,2.24,13.62c-2.74,12.4-5,25.64-5.33,36.86.22-21.66.52-40.57.91-48.51l5-7-1.47-1.55-3.29,4.6c.58-10.51,1.34-19.31,2.33-23l3.56-3.94L367.19,615l-3.27,3.63-4.29-2.53-.49,1.23-.49-1.23-4.29,2.53L351.09,615l-1.31,1.76,3.55,3.94c.73,2.76,1.34,8.28,1.83,15.2L352,631.51l-1.47,1.56,4.9,6.86c.33,5.22.6,11,.83,16.9l-2.6-2.8-1.29,1.77,4,4.33c.75,20.58,1,133.22,1,133.6l1.78,0,1.78,0c0-.27.12-44.92.48-85.44.82,56.77,10.42,85.46,10.52,85.75l1.72-.65c-.1-.3-10.33-30.89-10.47-91.7h0c.23,44,13.53,91.82,13.67,92.3l1.75-.54c-.13-.48-13.36-48-13.6-91.74ZM359.14,690c-.29-15.67-1-43.22-2.45-59.37l3.11-4.19-1.45-1.59-2,2.66a67.47,67.47,0,0,0-1-6.78l3.78-2.23,3.78,2.24a103.19,103.19,0,0,0-1.55,12.44l-1.93-2.61L358,632.14l3.14,4.23C360,652.73,359.39,676.05,359.14,690Z"/><path class="cls-4" d="M338.81,714.61c-5.32,42-25.37,81.64-25.37,81.64h91.4s-20-39.63-25.37-81.64Z"/><polygon class="cls-5" points="357.37 714.61 351.71 796.25 366.57 796.25 360.91 714.61 357.37 714.61"/><path class="cls-5" d="M356.3,714.61h-6.09c0,.78-2,41.49-18.79,81.64h7.83A315.65,315.65,0,0,0,356.3,714.61Z"/><path class="cls-5" d="M347.58,714.61H343a324.62,324.62,0,0,1-23.49,81.64h7A321.56,321.56,0,0,0,347.58,714.61Z"/><path class="cls-5" d="M362,714.61h6.09c0,.78,2,41.49,18.79,81.64H379A315.87,315.87,0,0,1,362,714.61Z"/><path class="cls-5" d="M370.71,714.61h4.56a325.11,325.11,0,0,0,23.49,81.64h-7A321.49,321.49,0,0,1,370.71,714.61Z"/><path class="cls-1" d="M165.87,674.33c2.09-10.5-30.89-13.07-42.59-13.65v-.16l-2,.07-2-.07v.16c-11.71.58-44.69,3.15-42.6,13.65,0,0,35.75,4.51,35.75,36.65S100,778.17,100,778.17h42.6S130.12,743.11,130.12,711,165.87,674.33,165.87,674.33Z"/><path class="cls-13" d="M115.2,709.92c0,.11,0,.22,0,.33a34.11,34.11,0,0,1,5.56-.51,32.94,32.94,0,0,1,6.84.72c0-.18,0-.36,0-.54a37.48,37.48,0,0,1,24.53-35.14c-7.13-4-21.79-5.27-28.15-5.62V669s-.56,0-1.52.06l-1,0-1,0c-1-.05-1.52-.06-1.52-.06v.14c-6.35.35-21,1.59-28.15,5.62A37.48,37.48,0,0,1,115.2,709.92Z"/><path class="cls-3" d="M109.5,716.86c-.8-19-18.44-29.68-32.41-35.2l-1.32-4.55-1.23.53,1,3.42a103.83,103.83,0,0,0-11-3.48l-1.18-5.15-1.25.41,1,4.38c-1.58-.37-2.61-.58-2.87-.62l-.2,1.56c.1,0,2.18.42,5.39,1.31l-1.55.43.29,1.54,4.13-1.14c13.52,4.13,39,14.79,39.94,36.64h0c-.09,41.07-14.92,60.63-15.07,60.82l.94.81c.15-.2,15.27-20.09,15.35-61.71Z"/><path class="cls-3" d="M113.23,716.89a34,34,0,0,0-2.33-12.71,43,43,0,0,0-6.17-10.87,55.76,55.76,0,0,0-4.1-4.71l-.56-4.75-1.29.23.36,3a75.16,75.16,0,0,0-9.82-7.86l.69-2.34-1.23-.53-.61,2.1a101.76,101.76,0,0,0-14.47-7.8l-.61-3.87-1.28.3.47,3c-3.31-1.4-5.57-2.16-6-2.28L66,669.31l1.44.52c-1.69.35-3.27.68-3.48.7l0,1.58c.19,0,2.25-.42,6.11-1.24,1.27.53,2.8,1.19,4.5,2l-2.33.87.38,1.52,3.9-1.46c1.85.91,3.86,2,5.95,3.15l-3.15.56.19,1.56,5-.89c1.7,1,3.43,2.15,5.16,3.36l-3.29.61.19,1.56,4.87-.9c1.19.89,2.38,1.82,3.54,2.8H91.71v1.58h5.14c8.28,7.46,15,17.33,15.16,29.74-.1,5.66-1.22,41-14,60.9l1,.71a60.36,60.36,0,0,0,5-9.78,97,97,0,0,0,3.66-10.91c1-3.69,1.84-7.42,2.54-11.18.65-3.51,1.18-7,1.62-10.59q.56-4.54.91-9.13c.17-2.26.31-4.53.4-6.8C113.17,719.05,113.2,718,113.23,716.89Z"/><path class="cls-3" d="M116.53,716.88c.1-8.89-3.24-17.67-7.84-25.12a74.63,74.63,0,0,0-7.32-9.85l-.1-4.55-1.3,0,.06,3q-2.07-2.26-4.16-4.27l-.9-6.21-1.28.27.65,4.49c-1.77-1.64-3.49-3.12-5.11-4.44l.34-4.92-1.3-.13-.27,4c-1.69-1.33-3.21-2.46-4.52-3.38l.86-3.54-1.25-.45-.77,3.18c-1.77-1.22-2.94-1.93-3.19-2.08l-.57,1.42.67.42-4-.73-.2,1.56L82.45,667l1.67,1.21-3.91,1.07.29,1.55,5.19-1.43c1.42,1.09,3,2.35,4.61,3.76l-3.84.53.15,1.57,5.26-.73c1.48,1.32,3,2.77,4.53,4.31l-2.28.45.21,1.57,3.38-.67c8.64,9.08,17.05,21.55,17.61,36,0,37.73-11.24,61.41-11.35,61.65l1.09.57c.06,0,2.14-5.29,2.24-5.57a137.89,137.89,0,0,0,4.58-15.59A173.46,173.46,0,0,0,115.77,733C116.26,727.62,116.47,722.26,116.53,716.88Z"/><path class="cls-3" d="M116.12,688.7l1.5-9.07-1.28-.31-1,6c-.76-3.25-1.56-6.36-2.32-9.2l2.13-4.41-1.13-.81-1.55,3.22c-.76-2.74-1.46-5.16-2.07-7.16l1.11-1.19,2.86,1.22.43-1.5-2.17-.92L115,662l-.85-1.19-4.24,4.54c-.51-1.68-.91-2.93-1.14-3.63l2.43-1.89-.7-1.33-2.62,2-5-2.11-.43,1.49,5,2.12c.23.71.82,2.55,1.59,5.14l-6.68-5.75-.75,1.29,2.76,2.38-2,1.13.55,1.44,2.69-1.52,4.21,3.62c1,3.36,2.14,7.55,3.29,12.15l-3.57-6.19.5-3-1.28-.31-.25,1.49-1.79-3.11-1.06.91,2.65,4.6-1.24-.47-.39,1.51,2.86,1.09,4.71,8.17a153.94,153.94,0,0,1,4,25c-1.49-13.35-8-26.28-14.08-35.88l.63-5.63-1.28-.21-.46,4.1c-1.53-2.33-3-4.42-4.35-6.24l1.28-3.3-1.18-.68-1,2.71c-.59-.78-1.15-1.5-1.67-2.16L98,661.09l-1.08-.89-1.68,3c-1.47-1.82-2.47-3-2.66-3.16l-.88,1.17.36.4-4-.32-.09,1.57,5.53.45c.48.58,1,1.27,1.66,2.08l-3-.13,0,1.58,4.25.18v0c1.13,1.48,2.37,3.18,3.72,5.13H97.42v1.58h3.69c1.4,2.07,2.83,4.35,4.27,6.79l-2.58-.61-.25,1.55,3.91.94c5.6,9.93,10.68,22.21,10.84,34.31-.12,29.17-9,61-9.06,61.28l1.17.37c.09-.32,8.94-32.15,9.1-61.45h0c-.09,40.45-6.9,60.85-7,61.05l1.14.43c.07-.2,7-21,7-62.27h0C119.82,708.1,118.19,698,116.12,688.7Z"/><path class="cls-3" d="M182.5,678.16l-.2-1.56c-.26,0-1.29.25-2.87.62l1-4.38-1.25-.41L178,677.58a103.89,103.89,0,0,0-11,3.48l1-3.42-1.22-.53-1.32,4.55c-13.89,5.49-31.4,16.12-32.38,34.89h0v.06c0,.09,0,.16,0,.25h0c.08,41.62,15.2,61.51,15.35,61.71l.94-.81c-.15-.19-15-19.75-15.07-60.82h0c.93-21.85,26.43-32.51,40-36.64l4.13,1.14.29-1.54-1.55-.43C180.32,678.58,182.4,678.18,182.5,678.16Z"/><path class="cls-3" d="M130.5,716.91c0-1,.07-2,.17-3a34.19,34.19,0,0,1,1.9-8.32,43,43,0,0,1,8.67-14c.7-.77,1.42-1.52,2.15-2.25l1.12-1.09c.2-.18.89-1.05,1.14-1.05h5.14v-1.58h-3.33q1.75-1.47,3.54-2.79l4.87.89.19-1.56-3.29-.61c1.73-1.21,3.46-2.33,5.16-3.36l5,.89.18-1.56-3.14-.56c2.09-1.19,4.1-2.24,6-3.15l3.9,1.46.38-1.52-2.33-.87c1.7-.79,3.23-1.45,4.5-2,3.86.82,5.92,1.24,6.11,1.24l0-1.58c-.2,0-1.79-.35-3.47-.7l1.44-.52-.33-1.52c-.4.12-2.66.88-6,2.28l.47-3-1.28-.3-.61,3.87a101.76,101.76,0,0,0-14.47,7.8l-.62-2.1-1.22.53.69,2.34a74.51,74.51,0,0,0-9.83,7.87l.36-3-1.28-.23-.56,4.75c-7,7.16-12.29,16.28-12.65,27.51,0,1.91.05,2.54.09,3.67.05,1.38.12,2.75.21,4.13q.36,5.79,1,11.56c.58,4.79,1.33,9.55,2.3,14.27a115.67,115.67,0,0,0,4,14.89,66.88,66.88,0,0,0,6.27,13.47l.26.42,1-.71a64.18,64.18,0,0,1-6.31-13.31,116.51,116.51,0,0,1-4.06-14.83c-1-4.71-1.73-9.47-2.3-14.25q-.69-5.76-1.05-11.56C130.59,721.53,130.45,719.23,130.5,716.91Z"/><path class="cls-3" d="M144.79,680.19l3.38.67.2-1.57-2.28-.45c1.54-1.54,3.06-3,4.54-4.31l5.26.73.15-1.57-3.85-.53c1.64-1.41,3.2-2.67,4.61-3.76l5.19,1.43.29-1.55-3.9-1.07,1.67-1.21,7.38-1.36-.19-1.56-4,.73.67-.42-.57-1.42c-.25.15-1.42.86-3.2,2.08l-.77-3.18-1.24.45.86,3.54c-1.31.92-2.84,2-4.52,3.38l-.27-4-1.3.13.34,4.92c-1.62,1.32-3.34,2.8-5.12,4.44l.65-4.49-1.28-.27-.89,6.21q-2.08,2-4.17,4.27l.07-3-1.3,0-.1,4.55c0,.32-1.07,1.24-1.29,1.51l-1.33,1.64c-.88,1.12-1.73,2.27-2.55,3.44a64.48,64.48,0,0,0-4.54,7.48,49.22,49.22,0,0,0-5.34,17.19,32.79,32.79,0,0,0-.22,3.7s.13,4.07.15,4.92c0,1.68.12,3.36.22,5q.27,4.75.78,9.48c.59,5.51,1.44,11,2.55,16.4.88,4.28,1.92,8.51,3.15,12.69.85,2.9,1.79,5.78,2.86,8.6.52,1.39,1.07,2.78,1.68,4.13,0,0,.15.32.15.32l1.08-.57c-.11-.23-11.18-23.63-11.33-61C127.45,702.14,136,689.42,144.79,680.19Z"/><path class="cls-3" d="M125.19,716.91c.1-12.16,5.21-24.53,10.85-34.52l3.91-.94-.26-1.55-2.57.61c1.44-2.44,2.88-4.72,4.27-6.79h3.68v-1.58h-2.62c1.34-1.95,2.59-3.64,3.71-5.12v0l4.26-.18,0-1.58-3,.12c.64-.8,1.19-1.49,1.67-2.07l5.53-.45-.09-1.57-4,.32c.2-.24.33-.38.35-.4l-.88-1.17c-.19.21-1.19,1.34-2.66,3.16l-1.69-3-1.07.89,1.83,3.3c-.52.65-1.07,1.37-1.67,2.16l-1-2.72-1.18.68,1.28,3.3c-1.35,1.82-2.82,3.91-4.35,6.24L139,670l-1.29.21.64,5.63c-6.1,9.6-12.59,22.53-14.09,35.87a155.16,155.16,0,0,1,4-25l4.71-8.17,2.86-1.09-.39-1.51-1.25.47,2.66-4.6-1.06-.91L134,674l-.25-1.49-1.28.31.5,3-3.57,6.19c1.15-4.6,2.31-8.79,3.28-12.15l4.22-3.62,2.69,1.52.54-1.44-2-1.13,2.76-2.38-.76-1.29-6.68,5.75c.78-2.59,1.36-4.43,1.6-5.14l5-2.12-.42-1.49-5,2.11-2.62-2-.7,1.33,2.43,1.89c-.23.7-.63,2-1.14,3.63l-4.24-4.54-.86,1.19,2.39,2.55-2.17.92.43,1.5,2.86-1.22,1.11,1.19c-.61,2-1.32,4.42-2.07,7.16l-1.56-3.22-1.12.81,2.13,4.41c-.77,2.84-1.56,6-2.33,9.2l-1-6-1.28.31,1.49,9.07a140.27,140.27,0,0,0-3.54,24.54c.15-14.42.34-27,.6-32.3l3.31-4.62-1-1-2.19,3.06c.38-7,.89-12.85,1.55-15.34l2.37-2.63-.88-1.16-2.18,2.41-2.85-1.68-.33.82-.33-.82-2.85,1.68-2.18-2.41-.88,1.16,2.37,2.63a67.88,67.88,0,0,1,1.22,10.12l-2.11-3-1,1,3.27,4.57c.21,3.48.4,7.33.55,11.25l-1.73-1.86-.86,1.18,2.67,2.88c.5,13.71.65,88.7.65,88.95h2.37c0-.18.08-29.9.32-56.88.55,37.79,6.94,56.89,7,57.09l1.14-.43c-.06-.2-6.88-20.57-7-61.05h0c.16,29.3,9,61.13,9.1,61.45l1.17-.37c-.09-.31-8.89-32-9.05-61.07Zm-3.94-7.81c-.19-10.44-.65-28.78-1.63-39.53l2.07-2.79-1-1.06-1.31,1.77a44.26,44.26,0,0,0-.68-4.51l2.52-1.48,2.51,1.48a70.81,70.81,0,0,0-1,8.29l-1.29-1.74-1,1.06,2.09,2.81C121.8,684.29,121.42,699.83,121.25,709.1Z"/><path class="cls-4" d="M108.07,724c-3.48,28.58-16.37,55.47-16.37,55.47h59.1S137.91,752.62,134.43,724Z"/><polygon class="cls-5" points="120.04 724.04 116.2 779.51 126.3 779.51 122.45 724.04 120.04 724.04"/><path class="cls-5" d="M119.32,724h-4.14c0,.54-1.34,28.19-12.76,55.47h5.32A214.43,214.43,0,0,0,119.32,724Z"/><path class="cls-5" d="M113.39,724h-3.1a220.49,220.49,0,0,1-16,55.47h4.78A218.61,218.61,0,0,0,113.39,724Z"/><path class="cls-5" d="M123.18,724h4.14c0,.54,1.34,28.19,12.76,55.47h-5.32A214.43,214.43,0,0,1,123.18,724Z"/><path class="cls-5" d="M129.1,724h3.1a221,221,0,0,0,16,55.47h-4.77A218.67,218.67,0,0,1,129.1,724Z"/><path class="cls-1" d="M265.2,637.76c3.13-15.77-46.4-19.63-64-20.5V617s-1.12,0-3.05.1c-1.93-.08-3-.1-3-.1v.24c-17.58.87-67.12,4.73-64,20.5,0,0,53.7,6.78,53.7,55s-18.66,100.92-18.66,100.92h64S211.5,741.07,211.5,692.8,265.2,637.76,265.2,637.76Z"/><path class="cls-14" d="M189.08,691.21c0,.17,0,.34,0,.51a49.11,49.11,0,0,1,8.35-.78A49.83,49.83,0,0,1,207.67,692c0-.27,0-.54,0-.82a56.32,56.32,0,0,1,36.83-52.78c-10.7-6-32.73-7.91-42.27-8.44v-.21s-.84,0-2.29.09l-1.55-.06-1.55.06c-1.45-.07-2.29-.09-2.29-.09V630c-9.54.53-31.57,2.4-42.27,8.44A56.34,56.34,0,0,1,189.08,691.21Z"/><path class="cls-3" d="M180.52,701.64c-1.2-28.5-27.7-44.57-48.68-52.88l-2-6.82-1.84.79,1.49,5.13a159.45,159.45,0,0,0-16.58-5.22l-1.76-7.74-1.88.63,1.49,6.58c-2.37-.57-3.92-.87-4.31-1l-.29,2.35c.14,0,3.26.64,8.1,2l-2.34.65.43,2.31,6.21-1.71c20.31,6.2,58.6,22.2,60,55h0c-.14,61.69-22.42,91.06-22.64,91.35l1.42,1.21c.22-.29,22.93-30.16,23-92.67Z"/><path class="cls-3" d="M186.12,701.68a50.82,50.82,0,0,0-3.5-19.09,64.28,64.28,0,0,0-9.26-16.32,80.1,80.1,0,0,0-6.16-7.08l-.84-7.13-1.93.34L165,657a110.32,110.32,0,0,0-14.75-11.81l1-3.52-1.84-.8-.92,3.16a153.66,153.66,0,0,0-21.73-11.72l-.92-5.81-1.92.45.7,4.44c-5-2.11-8.36-3.25-9-3.44l-.5,2.29c.07,0,.86.29,2.17.78-2.53.53-4.92,1-5.22,1l.05,2.37c.29,0,3.38-.63,9.18-1.85,1.91.79,4.2,1.78,6.76,3l-3.5,1.31.57,2.27,5.85-2.19c2.79,1.37,5.8,3,8.94,4.74l-4.72.84.28,2.35,7.57-1.35c2.55,1.54,5.15,3.23,7.75,5l-5,.92.3,2.34,7.3-1.35c1.8,1.34,3.58,2.73,5.32,4.2h-5V657h7.72c12.44,11.21,22.57,26,22.77,44.67-.15,8.5-1.83,61.5-21,91.47l1.52,1.07a89.78,89.78,0,0,0,7.48-14.69,143.32,143.32,0,0,0,5.5-16.39c1.51-5.53,2.76-11.14,3.81-16.79q1.45-7.9,2.43-15.9.84-6.84,1.37-13.71.39-5.1.6-10.22C186,704.93,186.08,703.31,186.12,701.68Z"/><path class="cls-3" d="M191.08,701.67c.15-13.36-4.87-26.54-11.77-37.72a112.83,112.83,0,0,0-11-14.81l-.14-6.83-1.95.06.09,4.51c-2.07-2.27-4.17-4.41-6.25-6.42l-1.35-9.32-1.92.41,1,6.73c-2.66-2.46-5.25-4.69-7.68-6.67l.5-7.38-1.94-.19-.41,6.08c-2.53-2-4.83-3.7-6.78-5.09l1.29-5.31-1.88-.67-1.16,4.77c-2.66-1.83-4.42-2.9-4.79-3.12l-.87,2.13c.05,0,.42.25,1,.63l-6-1.09-.29,2.34,11.09,2c.78.55,1.62,1.16,2.51,1.82l-5.86,1.61.43,2.32,7.8-2.14c2.12,1.63,4.46,3.52,6.92,5.64l-5.77.81.22,2.35,7.9-1.1c2.22,2,4.51,4.16,6.81,6.48l-3.42.67.31,2.35,5.07-1c13,13.64,25.61,32.38,26.45,54.13,0,56.67-16.87,92.25-17,92.59l1.63.87c.09.05,3.22-8,3.37-8.37a208.18,208.18,0,0,0,6.88-23.42A263,263,0,0,0,190,725.84C190.67,717.8,191,709.75,191.08,701.67Z"/><path class="cls-3" d="M190.47,659.35l2.24-13.63-1.91-.46-1.49,9c-1.14-4.87-2.34-9.55-3.49-13.82l3.2-6.62-1.69-1.21L185,637.46c-1.14-4.11-2.2-7.75-3.11-10.76l1.66-1.78,4.3,1.83.64-2.25-3.25-1.38,3.58-3.84-1.29-1.78-6.36,6.81c-.77-2.51-1.37-4.39-1.72-5.44L183.1,616l-1-2-3.94,3.05-7.52-3.17-.65,2.24,7.55,3.19c.35,1.06,1.23,3.82,2.4,7.71l-10-8.63-1.13,1.93,4.15,3.57-3,1.71.83,2.15,4-2.28,6.33,5.45c1.47,5,3.21,11.34,4.94,18.24l-5.37-9.3.75-4.44-1.91-.47-.38,2.23-2.69-4.66-1.6,1.36,4,6.93-1.87-.72-.58,2.27,4.29,1.63,7.08,12.27c2.88,12.44,5.38,26,6,37.55-2.24-20.05-12-39.47-21.15-53.89l.95-8.45-1.93-.32-.69,6.16c-2.29-3.49-4.5-6.64-6.52-9.38l1.91-5-1.77-1-1.57,4.07c-.9-1.19-1.73-2.26-2.51-3.25l2.76-5-1.62-1.33-2.52,4.54c-2.22-2.75-3.72-4.43-4-4.75l-1.31,1.75.53.61-6-.49-.13,2.37,8.31.67c.72.87,1.55,1.91,2.5,3.12l-4.47-.19-.07,2.38,6.39.26v0c1.68,2.22,3.56,4.78,5.57,7.69h-3.94v2.38h5.54c2.1,3.12,4.25,6.53,6.41,10.21l-3.87-.93-.37,2.33,5.87,1.41c8.41,14.92,16,33.37,16.27,51.53-.17,43.82-13.47,91.58-13.6,92.06l1.75.54c.14-.48,13.44-48.28,13.68-92.3h0c-.13,60.76-10.37,91.4-10.47,91.7l1.72.65c.1-.31,10.59-31.58,10.59-93.52h-.08C196,688.49,193.57,673.37,190.47,659.35Z"/><path class="cls-3" d="M290.16,643.51l-.3-2.35c-.38.08-1.94.38-4.31,1l1.5-6.58-1.88-.63-1.76,7.74a158.7,158.7,0,0,0-16.58,5.22l1.49-5.13-1.85-.79-2,6.82C243.63,657,217.34,673,215.86,701.18h0v.08c0,.13,0,.25,0,.38h0c.12,62.52,22.82,92.39,23.06,92.68l1.41-1.21c-.22-.29-22.5-29.66-22.64-91.36h.08c1.39-32.82,39.69-48.83,60-55l6.2,1.71.43-2.31-2.34-.65C286.9,644.15,290,643.54,290.16,643.51Z"/><path class="cls-3" d="M212.06,701.71c0-1.52.11-3.05.26-4.58a51.24,51.24,0,0,1,2.85-12.49,64.51,64.51,0,0,1,13-21q1.58-1.75,3.24-3.4c.55-.55,1.11-1.09,1.68-1.63.29-.28,1.34-1.58,1.71-1.58h7.72v-2.37h-5c1.75-1.47,3.53-2.86,5.32-4.2l7.3,1.35.3-2.34-4.94-.92c2.59-1.81,5.19-3.51,7.74-5l7.57,1.35.28-2.35-4.72-.84c3.14-1.79,6.15-3.37,8.94-4.74l5.84,2.19.58-2.27-3.5-1.31c2.56-1.19,4.85-2.18,6.77-3,5.79,1.22,8.88,1.85,9.16,1.85l.06-2.37c-.3,0-2.69-.52-5.22-1,1.31-.49,2.1-.75,2.17-.78l-.51-2.29c-.59.19-4,1.33-9,3.44l.7-4.44-1.92-.45-.91,5.81A152.57,152.57,0,0,0,247.86,644l-.93-3.16-1.84.8,1,3.52A111.84,111.84,0,0,0,231.37,657l.54-4.58-1.93-.34-.84,7.13c-10.46,10.75-18.46,24.45-19,41.33-.06,2.87.07,3.8.14,5.51.08,2.07.18,4.13.31,6.2q.54,8.7,1.57,17.37c.86,7.18,2,14.34,3.45,21.42a176.64,176.64,0,0,0,6.06,22.37,101,101,0,0,0,9.42,20.23l.4.63,1.52-1.07a96.61,96.61,0,0,1-9.47-20,172,172,0,0,1-6.09-22.27c-1.47-7.07-2.6-14.22-3.46-21.4q-1.05-8.65-1.58-17.36C212.2,708.66,212,705.19,212.06,701.71Z"/><path class="cls-3" d="M233.53,646.56l5.07,1,.31-2.35-3.42-.67c2.3-2.32,4.59-4.5,6.81-6.48l7.9,1.1.22-2.35-5.77-.81c2.46-2.12,4.8-4,6.92-5.64l7.8,2.14.43-2.32-5.86-1.61c.89-.66,1.73-1.27,2.5-1.82l11.1-2-.29-2.34-6,1.09,1-.63-.86-2.13c-.37.22-2.13,1.29-4.8,3.12l-1.15-4.77-1.88.67,1.29,5.31c-2,1.39-4.25,3.09-6.78,5.09L247.7,624l-1.94.19.5,7.38c-2.44,2-5,4.21-7.68,6.67l1-6.73-1.92-.41-1.34,9.32c-2.08,2-4.18,4.15-6.26,6.42l.1-4.51-1.95-.06-.15,6.83c0,.49-1.6,1.88-1.94,2.28-.68.81-1.34,1.63-2,2.46-1.32,1.68-2.61,3.4-3.84,5.16a98.54,98.54,0,0,0-6.81,11.24,74,74,0,0,0-8,25.82,46.88,46.88,0,0,0-.33,5.56s.18,6.11.22,7.39c.08,2.52.18,5,.33,7.56q.4,7.14,1.17,14.24c.9,8.27,2.17,16.5,3.84,24.64q2,9.63,4.72,19.06c1.28,4.35,2.7,8.67,4.29,12.91.79,2.09,1.61,4.18,2.53,6.21l.22.48,1.63-.87c-.17-.34-16.79-35.48-17-91.56C207.49,679.53,220.34,660.42,233.53,646.56Z"/><path class="cls-3" d="M204.09,701.71c.15-18.27,7.83-36.84,16.29-51.85l5.87-1.41-.38-2.33-3.86.93c2.16-3.68,4.32-7.09,6.41-10.21H234v-2.38H230c2-2.91,3.88-5.46,5.57-7.68v0l6.4-.26-.07-2.38-4.47.19c1-1.21,1.78-2.25,2.5-3.12l8.31-.67-.13-2.37-6,.49.53-.61-1.32-1.75c-.28.32-1.78,2-4,4.75l-2.53-4.54-1.61,1.34,2.75,4.94c-.78,1-1.61,2.07-2.5,3.25L231.83,622l-1.77,1,1.91,5c-2,2.74-4.23,5.89-6.52,9.38l-.69-6.16-1.94.32,1,8.45c-9.15,14.42-18.9,33.84-21.15,53.89.64-11.56,3.13-25.11,6-37.55L215.71,644l4.3-1.63-.59-2.27-1.87.72,4-6.93-1.6-1.36-2.69,4.66-.38-2.23-1.91.47.74,4.44-5.36,9.3c1.73-6.9,3.47-13.2,4.93-18.24l6.34-5.45,4,2.28.82-2.15-3-1.71,4.14-3.57-1.13-1.93-10,8.63c1.17-3.89,2-6.65,2.39-7.71l7.55-3.19-.64-2.24-7.52,3.17L214.28,614l-1.05,2,3.65,2.84c-.34,1-.94,2.93-1.71,5.44l-6.36-6.81-1.29,1.78,3.58,3.84-3.26,1.38.65,2.25,4.3-1.83,1.65,1.78c-.9,3-2,6.65-3.1,10.76L209,632.63l-1.69,1.21,3.2,6.62c-1.15,4.27-2.35,8.95-3.5,13.82l-1.48-9-1.91.46,2.23,13.62c-2.74,12.4-5,25.64-5.32,36.86.22-21.66.52-40.57.91-48.51l5-7-1.47-1.55-3.29,4.6c.58-10.51,1.34-19.31,2.33-23l3.56-3.94L206.22,615,203,618.67l-4.29-2.53-.49,1.23-.49-1.23-4.29,2.53L190.12,615l-1.32,1.76,3.56,3.94c.73,2.76,1.33,8.28,1.83,15.2L191,631.51l-1.47,1.56,4.91,6.86c.32,5.22.6,11,.83,16.9l-2.6-2.8-1.29,1.77,4,4.33c.75,20.58,1,133.22,1,133.6l1.78,0,1.78,0c0-.27.12-44.92.47-85.44.83,56.77,10.43,85.46,10.53,85.75l1.72-.65c-.1-.3-10.34-30.89-10.47-91.7h0c.24,44,13.54,91.82,13.68,92.3l1.75-.54c-.14-.48-13.36-48-13.6-91.74ZM198.17,690c-.29-15.67-1-43.22-2.45-59.37l3.1-4.19-1.44-1.59-2,2.66a65.09,65.09,0,0,0-1-6.78l3.78-2.23,3.78,2.24a103.19,103.19,0,0,0-1.55,12.44l-1.93-2.61L197,632.14l3.14,4.23C199,652.73,198.42,676.05,198.17,690Z"/><path class="cls-4" d="M177.84,714.61c-5.32,42-25.37,81.64-25.37,81.64h91.4s-20.06-39.63-25.37-81.64Z"/><polygon class="cls-5" points="196.4 714.61 190.74 796.25 205.6 796.25 199.94 714.61 196.4 714.61"/><path class="cls-5" d="M195.33,714.61h-6.09c0,.78-2,41.49-18.79,81.64h7.83A315.65,315.65,0,0,0,195.33,714.61Z"/><path class="cls-5" d="M186.61,714.61H182a325.11,325.11,0,0,1-23.49,81.64h7A322,322,0,0,0,186.61,714.61Z"/><path class="cls-5" d="M201,714.61h6.09c0,.78,2,41.49,18.79,81.64h-7.83A315.65,315.65,0,0,1,201,714.61Z"/><path class="cls-5" d="M209.74,714.61h4.56a325.11,325.11,0,0,0,23.49,81.64h-7A321.49,321.49,0,0,1,209.74,714.61Z"/></svg>