<svg xmlns="http://www.w3.org/2000/svg" xmlns:xlink="http://www.w3.org/1999/xlink" viewBox="0 0 1920 1080"><defs><style>.cls-1{isolation:isolate;}.cls-2{fill:url(#linear-gradient);}.cls-3{mix-blend-mode:multiply;}.cls-4{fill:#dbd9c8;}.cls-5{fill:#696969;}.cls-6{fill:url(#linear-gradient-2);}</style><linearGradient id="linear-gradient" x1="686.14" y1="591.26" x2="686.14" y2="865.48" gradientUnits="userSpaceOnUse"><stop offset="0" stop-color="#ffb810"/><stop offset="1" stop-color="#fff"/></linearGradient><linearGradient id="linear-gradient-2" x1="1190.79" y1="652.73" x2="1155.56" y2="863.15" xlink:href="#linear-gradient"/></defs><title>Circuit Breaker Background_Dome</title><g class="cls-1"><g id="Layer_1" data-name="Layer 1"><path class="cls-2" d="M873.12,848.89H499.17S554.48,575,637.71,603.64C752.63,643.24,873.12,848.89,873.12,848.89Z"/><g class="cls-3"><path class="cls-4" d="M800.48,752.36a75.05,75.05,0,0,0-20.24,3.11c-48.1,14.4-77.81,73.87-90.09,104.11h17.51c12.59-29,38.71-77.18,77.2-88.71a60.16,60.16,0,0,1,30.65-.76A137.15,137.15,0,0,1,800.48,752.36Z"/><path class="cls-4" d="M766.73,706.46a52,52,0,0,0-27.85,5.93c-46.81,23.88-80,113.75-90.91,147.19h17c11.86-34.84,41.48-114.31,81.23-132.86,20.18-9.42,35.6-3.18,38.49-2.09C779.32,717.3,772.52,713.34,766.73,706.46Z"/><path class="cls-4" d="M743.79,680.85q-7.06-7.38-14-14.26c-49.3,8.39-103.92,151.78-118.65,193h17.1c29.47-80.85,79.95-184,108.09-177.09,4.33,1,8.19,2,11.8,3C746.64,684,745.3,682.42,743.79,680.85Z"/><path class="cls-4" d="M697,637.76c-1.5.45-3,.88-4.53,1.45-41.32,15.55-98.34,183.7-110.34,220.37h16.92c25.86-78.21,72.73-195.4,99.09-205.31a70.81,70.81,0,0,1,17.55-3.91C710.43,645.66,702.49,642,697,637.76Z"/><path class="cls-4" d="M660.66,614.82a76,76,0,0,0-7.2,3.84C584.37,660.52,554.67,824.4,549,859.58h16.33c6.43-38.18,35.58-190.31,96.45-227.17a52,52,0,0,1,17.77-6.88A209,209,0,0,0,660.66,614.82Z"/><path class="cls-4" d="M629.5,602.41a71,71,0,0,0-8.73,4.36c-70,42-99.89,216.31-105.44,252.81h16.3c6.28-39.38,35.63-202,97.41-239,9.6-5.76,19.39-8,29.65-6.75A202,202,0,0,0,629.5,602.41Z"/></g><path class="cls-5" d="M864.73,833.22c-6.56-9.83-16.48-24.4-28.8-41.56l-8.38-9.33.65-1.34L824,775.22l-1,2-15.23-17,1.94-4q-2.13-2.79-4.32-5.61l-2.19,4.55-15.24-17,2.9-6c-1.46-1.81-2.92-3.62-4.4-5.43l-3.06,6.34-15.23-17L771.6,709c-1.49-1.76-3-3.5-4.5-5.24l-3.53,7.31-15.23-17,3.57-7.4c-1.53-1.67-3.07-3.34-4.62-5L743.77,689l-15.23-17,3.13-6.48q-2.38-2.37-4.77-4.69L724,667l-15.23-17,2-4.11q-2.47-2.19-5-4.29l-1.59,3.31-14.44-16.08a198.76,198.76,0,0,0-20.66-13.53L681.39,629l-9.91,20.53-15.23-17,9.28-19.23c-1.9-1-3.79-1.94-5.67-2.82l-8.18,17-15.23-17,3.29-6.82a59.09,59.09,0,0,0-6.57-1l-1.29,2.68-2.56-2.85a45.54,45.54,0,0,0-8,.61l7.55,8.41L619,632.15l-15.23-17L607,608.5a86.86,86.86,0,0,0-11.29,7.18l.52.58-9.9,20.53-6-6.73c-1.42,1.57-2.84,3.13-4.21,4.79l7.27,8.1-9.9,20.53-10-11.15c-1.18,1.84-2.31,3.74-3.45,5.64l10.49,11.68-9.9,20.53-11.23-12.5c-1,2.05-2,4.13-2.93,6.22l11.18,12.44-9.9,20.53-10.34-11.52c-.86,2.22-1.72,4.43-2.54,6.66l9.9,11-9.9,20.53L527,734.91c-.74,2.35-1.48,4.71-2.18,7l7,7.78-9.9,20.53-3.75-4.18c-.64,2.5-1.27,5-1.86,7.41l2.63,2.94-6.4,13.26c-2,9.15-3.68,17.61-5,25l3.14-6.53,15.24,17L516,845.7,504.4,832.83c-.51,3.25-.91,5.95-1.22,8.12l5.12,5.71h14.23l7.91-16.39,14.71,16.39h8.51l-.45-.51,9.91-20.53,15.23,17-2,4.07h14.12l-4.61-5.14L595.8,821,611,838l-4.2,8.71h7L615.6,843l3.26,3.62h8.5l-8.78-9.79,9.9-20.53,15.23,17-6.44,13.36h7l4-8.27,7.41,8.27h8.52l-13-14.43,9.9-20.53,15.24,17-8.68,18h7l6.23-12.9,11.58,12.9h12.64l8.46-17.54,15.23,17-.28.58h9.31L736.43,845l9.9-20.53,15.24,17-2.52,5.22h7l.06-.13.11.13h8.51l-5.65-6.3L779,819.83l15.23,17-4.76,9.86h7l2.3-4.77,4.28,4.77h8.51l-9.82-10.94,9.91-20.53,15.23,17-7,14.51h7l4.54-9.42,8.45,9.42h8.52l-14-15.58,9.9-20.53,15.23,17-9.23,19.15h7l6.78-14.06ZM785,744.39l15.23,17-9.9,20.53-15.23-17Zm-19.8-22,15.23,17-9.9,20.53-15.23-17ZM572.05,744l9.9-20.53,15.23,17L587.28,761Zm12.26,23.12-9.91,20.53-15.23-17,9.91-20.53Zm113.9-46.78L683,703.4l9.9-20.53,15.23,17Zm14.47-15.44,15.24,17L718,742.41l-15.23-17Zm-17.45,21.6-9.9,20.53-15.23-17,9.9-20.53ZM665.53,725,650.3,708l9.9-20.53,15.23,17Zm-19.81-22-15.23-17,9.91-20.53,15.23,17Zm-3,6.16-9.91,20.53-15.23-17,9.91-20.53ZM613,707.59l-15.23-17,9.91-20.53,15.23,17Zm-3,6.16-9.9,20.53-15.23-17,9.91-20.53Zm-8.3,31.79,15.23,17L607.09,783l-15.24-17Zm3-6.16,9.9-20.54,15.24,17L620,756.34Zm29.71,1.52,15.23,17-9.9,20.53-15.23-17Zm3-6.17,9.9-20.53,15.23,17-9.9,20.53Zm29.7,1.53,15.23,17-9.9,20.53-15.23-17Zm19.81,22,15.23,17-9.91,20.53-15.23-17Zm3-6.16,9.9-20.53,15.24,17-9.91,20.53Zm29.71,1.52,15.23,17-9.9,20.53-15.24-17Zm3-6.16L732.49,727l15.23,17-9.91,20.53ZM752.29,749l15.23,17-9.9,20.53-15.23-17Zm-6.92-48.75,15.23,17-9.91,20.53-15.23-17Zm-19.81-22,15.24,17-9.91,20.53-15.23-17Zm-19.8-22.06,15.23,17-9.9,20.53-15.23-17Zm-19.8-22,15.23,17-9.9,20.53-15.24-17Zm-12.88,26.7,15.23,17-9.9,20.53-15.23-17Zm-19.8-22.06,15.23,17-9.91,20.53-15.23-17Zm-19.81-22,15.23,17-9.9,20.53-15.23-17ZM620.6,643.4l15.23,17-9.91,20.53-15.23-17Zm-19.81-22,15.23,17-9.9,20.53-15.23-17ZM587.91,648l15.23,17-9.9,20.53-15.23-17ZM575,674.74l15.23,17-9.9,20.53-15.23-17Zm-12.88,26.69,15.23,17-9.9,20.52-15.23-17Zm-12.88,26.7,15.24,17-9.91,20.53-15.23-17Zm-12.88,26.69,15.24,17-9.91,20.52-15.23-17ZM528.84,819l-15.23-17,9.9-20.53,15.24,17Zm19.8,22-15.23-17,9.9-20.53,15.24,17Zm12.88-26.69-15.23-17,9.9-20.53,15.24,17Zm19.81,22-15.24-17L576,798.93l15.23,17Zm12.88-26.69-15.24-17,9.91-20.53,15.23,17Zm19.8,22-15.23-17,9.9-20.53,15.23,17Zm12.88-26.69-15.23-17,9.9-20.52,15.23,17Zm19.8,22-15.23-17,9.9-20.52,15.23,17Zm12.88-26.69-15.23-17,9.9-20.53,15.23,17Zm19.8,22-15.23-17L674,785l15.24,17Zm19.8,22-15.23-17,9.91-20.53,15.23,17Zm12.89-26.69-15.24-17,9.91-20.53,15.23,17Zm19.8,22-15.23-17,9.9-20.53,15.23,17Zm12.88-26.69-15.23-17,9.9-20.52,15.23,17Zm19.8,22-15.23-17,9.9-20.52,15.23,17Zm12.88-26.69-15.23-17,9.9-20.53,15.24,17Zm19.8,22-15.23-17,9.91-20.53,15.23,17Zm12.88-26.7-15.23-17,9.91-20.53,15.23,17ZM829.9,826l-15.23-17,9.91-20.53,15.23,17Z"/><path class="cls-4" d="M682.88,848.89c12.59-29,38.72-77.19,77.2-88.71,22.81-6.82,47.55.51,73.54,21.78l10.19-12.44c-30.38-24.88-60.12-33.19-88.34-24.74-48.1,14.4-77.81,73.87-90.1,104.11Z"/><path class="cls-4" d="M640.19,848.89C652.05,814.05,682.34,736,721.41,716c9.71-5,22.17-9.47,32.18-8.52C769,709,781.5,720.77,781.5,720.77s9.22-14.79-23.2-26.52c-13.67-5-30.48.47-44.19,7.45-46.82,23.88-80,113.75-90.92,147.19Z"/><path class="cls-4" d="M603.44,848.89C632.91,768,682.82,675.57,711.54,671.8c39.64-5.21,39.76,14,39.76,14l11.17,12.62c8.39-9.93,2.37-27.28-9.64-34.44-11.06-6.58-22.36-8.42-38.41-9.64-53.11-4-112.31,150.39-128.08,194.51Z"/><path class="cls-4" d="M574.31,848.89c25.85-78.21,72.73-195.4,99.08-205.31,15.64-5.89,30.42-2.86,39.91.61A26.66,26.66,0,0,1,728,657.36l1.19,2.38,16.61,5-5.34-11.92c-6-13.33-17.62-23.57-31.86-26.8a70.48,70.48,0,0,0-40.87,2.52c-41.33,15.54-98.34,183.69-110.34,220.36Z"/><path class="cls-4" d="M540.58,848.89C547,810.71,576.15,658.58,637,621.72c10.89-6.6,22-8.9,33.82-7.1,11.49,1.75,15.06,9.77,15.06,9.77l15.08.29-4.07-6.4c-8-12.58-21.9-21-36.79-20.28a66.41,66.41,0,0,0-31.44,10c-69.1,41.87-98.79,205.75-104.44,240.93Z"/><path class="cls-4" d="M636.59,603.51c3.27-1.1,21.35-5.53,21.92-5.51C639,586.4,613.59,585.54,596,596.09c-70,42-99.89,216.3-105.44,252.8h16.3c6.28-39.38,35.63-202,97.41-239C614.69,603.63,625.35,601.55,636.59,603.51Z"/><path class="cls-6" d="M1585.32,846.66s-168-178.33-499.87-210.88C859.74,613.64,731.32,846.66,731.32,846.66Z"/><g class="cls-3"><path class="cls-4" d="M1511.77,784.36c-3,19.72-19.43,53.19-34,76.93h18.52c9.42-16.16,24.61-44.26,30.24-67.23C1526.52,794.73,1511.77,784.36,1511.77,784.36Z"/><path class="cls-4" d="M1437.19,739c-22.16,26.22-52,88.68-67.22,122.26h17.44c22.4-48.54,49.39-99,63-114.17A49.55,49.55,0,0,1,1437.19,739Z"/><path class="cls-4" d="M888.07,684.05a49.94,49.94,0,0,1-10.27,6.88,50,50,0,0,1-10.44,9,49.78,49.78,0,0,1-22.72,18.74A50,50,0,0,1,818.9,739a49.42,49.42,0,0,1-6.34,4.68c-.57,1.06-1.15,2.09-1.69,3.21-36,22.21-63.27,93.14-70.77,114.4H757c7.86-21.14,22-53.58,38.6-76.84a738.49,738.49,0,0,0-21.84,76.84H790c8-33.9,20.17-73.56,33.26-103a26.52,26.52,0,0,1,5.07-1.7L827,750.18a161,161,0,0,1,10.22-18.32c-11,41.43-18.86,104.43-21.73,129.43h15.92c6.43-55.69,19.58-138.48,31.77-154a55.33,55.33,0,0,1,6.59-7c-17,50.83-20,129.8-20.57,161H865c1-59.25,9.22-135,25.25-170.58a21.08,21.08,0,0,1,4.76.17l3-11.79A50.73,50.73,0,0,1,888.07,684.05Z"/><path class="cls-4" d="M978.9,646.14c-.68,0-1.31-.07-2-.1-8,5.24-18,8.42-29.93,8.51a50.31,50.31,0,0,1-14.77,6.63,49.25,49.25,0,0,1-13.36,8.33c-20.93,47.26-29.67,145.88-32.69,191.78H902c5.55-82.42,19.36-169.17,35-194.69a41,41,0,0,1,8.69.54l2.45-8.61c5.78-1.23,10.86-2.14,15.15-2.72-24.67,53-29.94,165.84-31,205.48h15.82c2.1-75.68,13-173.83,32.5-206.48a28.91,28.91,0,0,1,5.73.72L992,644.8A62.48,62.48,0,0,1,978.9,646.14Z"/><path class="cls-4" d="M1035.23,636.11a50.75,50.75,0,0,1-13.56,6.11h.57c-12.44,20.09-23.22,54.39-32.93,104.13-9.43,48.32-14.8,97.28-16.57,114.93H988.6c7.84-81.87,27.18-186.9,50.71-216.54a21.8,21.8,0,0,1,3.55,1.33l5.5-8.66a10.57,10.57,0,0,1,4.17-.79c13.73.58,24.3,1.42,32.49,2.31-36.13,48.63-59.76,180-66.62,222.35h16c14-85.17,41.87-195.59,68.15-219.77.46.09.77.17,1.16.26v-5.67Z"/><path class="cls-4" d="M1151.14,641.46v.67h-.3l.2,0c-30.63,44.28-65.66,169.11-78.89,219.11h16.38c24.74-92.56,58.3-190.58,77.22-213.94v-3.67A59.15,59.15,0,0,1,1151.14,641.46Z"/><path class="cls-4" d="M1218.61,657c-10.54,14.63-26.1,43.48-49.53,101.37-17.92,44.26-33.49,88.44-38.52,102.93h16.74c30.16-87,68.69-178.82,87.51-199.85l.47.4v-1.43A56.77,56.77,0,0,1,1218.61,657Z"/><path class="cls-4" d="M1294.55,679.13c-11.94,13.69-28.55,39.4-53.29,87.46-20.65,40.11-39.24,81.1-45.27,94.7h17.24c23.47-53.19,73.62-153.49,96.82-176.17A59.16,59.16,0,0,1,1294.55,679.13Z"/><path class="cls-4" d="M1360.3,705.08c1.25,1.38,2.32,2.62,3.13,3.59-10.7,13.11-25.43,34.51-46.24,69.84-20.9,35.51-39.77,71.29-45.77,82.78h17.88c32.25-61.57,70.37-125.26,90.85-148.29A51.41,51.41,0,0,1,1360.3,705.08Z"/></g><path class="cls-5" d="M1563,824c-1.28-1.22-2.63-2.47-4.06-3.78l-9.49,20-12.67-14.36,8.32-17.56c-1.37-1.11-2.77-2.24-4.23-3.4l-7.9,16.65-12.67-14.35,6.24-13.17c-1.43-1-2.87-2.08-4.36-3.14l-5.69,12-12.68-14.35,3.66-7.72c-1.47-1-2.92-2-4.45-2.94l-3,6.35-12.68-14.36.67-1.41c-5.94-3.62-12.13-7.3-18.77-11.07L1481,770.81l-8.25,17.38-12.67-14.36,8.06-17c-1.5-.85-3.1-1.72-4.63-2.57l-7.24,15.25-12.68-14.35,4.42-9.31c-1.57-.83-3.07-1.65-4.67-2.48l-3.55,7.48-12.68-14.36.53-1.1q-7.31-3.63-15-7.31l8.23,9.32-8.24,17.37L1400,740.43l7.09-14.95-4.8-2.23-6.1,12.87-12.68-14.35,2.74-5.77c-1.62-.72-3.18-1.43-4.83-2.15l-1.71,3.61-6.17-7c-4.34-1.86-8.69-3.72-13.2-5.59l-7.83,16.5L1339.8,707l4.17-8.79c-1.62-.65-3.3-1.29-4.93-1.93l-3,6.41-10.21-11.56c-3.47-1.33-7-2.65-10.59-4l1.85,2.1-8.24,17.37-12.68-14.36L1301,682c-1.68-.61-3.33-1.19-5-1.78l-3.71,7.81-11.58-13.12c-3.37-1.13-6.72-2.26-10-3.34l2.67,3-8.25,17.37-12.67-14.35,4.89-10.3-5.11-1.56-3.58,7.55-10.29-11.65q-4.74-1.35-9.42-2.64l.75.84-8.24,17.38-12.68-14.36,3.87-8.15c-1.74-.44-3.5-.9-5.23-1.32l-2.44,5.16-6.41-7.25c-4.72-1.09-9.4-2.14-14-3.12l-6.78,14.3-12.68-14.36,1.64-3.45c-1.8-.33-3.6-.66-5.39-1l0,.12-.14-.16c-2.79-.49-5.55-.94-8.3-1.38l6,6.76-8.24,17.37L1137.88,652l5.34-11.24c-1.83-.27-3.67-.54-5.48-.79l-3.66,7.73L1126,638.5c-4.14-.47-8.21-.88-12.25-1.25l-6.82,14.38-12.68-14.35.67-1.42c-3.16-.17-6.27-.3-9.37-.41l2.42,2.74-8.24,17.37L1067,641.2l2.86-6c-2,0-3.92,0-5.85,0l-.81,1.7-1.46-1.66c-2.33,0-4.66.09-6.94.17l5.92,6.71-8.24,17.37-12.68-14.36,4.38-9.21c-2,.11-4,.23-6,.39l-2.15,4.51-3.56-4q-3.29.3-6.51.65l7.59,8.6-8.24,17.38-12.67-14.36,5-10.64c-2.09.27-4.19.55-6.25.85l-2.6,5.48-3.93-4.45c-2.07.35-4.09.71-6.12,1.09l7.58,8.58-8.25,17.37L985.41,653l4.68-9.88c-2.21.47-4.39,1-6.54,1.47l-1.95,4.1-2.63-3c-1.94.48-3.87,1-5.77,1.48l5.93,6.72-8.25,17.37-12.67-14.35,2.95-6.22q-6.13,1.92-12,4l2.73,3.1-8.25,17.37-11.95-13.53c-3,1.31-6,2.64-8.87,4l-6.37,13.44-6.23-7.06c-1.61.87-3.21,1.74-4.77,2.62l8.52,9.65-8.24,17.38-12.68-14.36,3.55-7.49q-5.68,3.48-11,7.06l1.18,1.34-8.24,17.38-7.38-8.35q-2.13,1.62-4.2,3.26l9.1,10.3-8.24,17.38-12.68-14.36,2.82-6c-3.51,3-6.86,6-10.06,8.9l-7.28,15.33-4-4.55c-1.29,1.26-2.54,2.52-3.77,3.76l5.32,6-8.25,17.37-9.4-10.65c-1.24,1.28-2.47,2.55-3.72,3.82L827.46,760l-8.25,17.38L806.54,763l4.38-9.24q-5.26,5.13-10.69,10.12l0,0L792,781.28l-5-5.65c-1.35,1.16-2.69,2.32-4,3.46l6.54,7.4-8.24,17.38-11.92-13.49c-1.4,1.13-2.76,2.19-4.16,3.29a32,32,0,0,1-7.63,6.75l-3.5,7.37-.84-.95c-.85,1.71-1.69,3.43-2.54,5.14l.91,1-8.24,17.37-1.44-1.62c-.83,1.79-1.57,3.6-2.31,5.4l1.27,1.44-5.25,11.06h5.85l3.2-6.75,6,6.75h7.09l-10.57-12,8.24-17.37,12.68,14.36-7.11,15h5.85L771.9,836l9.43,10.67h10.85l6.92-14.6,12.68,14.35-.12.25h7.42l-1-1.16,8.24-17.37L839,842.49l-2,4.17h12.74l-4.48-5.08,8.24-17.38,12.68,14.36-3.85,8.1h5.85l1.8-3.79,3.35,3.79h7.08l-7.95-9,8.24-17.38,12.68,14.36-5.71,12h5.85l3.66-7.73,6.82,7.73h7.08l-11.43-12.94,8.25-17.38,12.68,14.36-7.58,16h5.85L924.38,835l10.28,11.65h9.53l7.39-15.58,12.67,14.36-.58,1.22h8.75l-1.89-2.13,8.25-17.38,12.67,14.36L989,846.66h5.85l.4-.84.74.84h7.08l-5.35-6.06,8.25-17.38,12.67,14.36-4.31,9.08h5.86l2.26-4.77,4.21,4.77h7.08l-8.82-10,8.25-17.37,12.67,14.35-6.17,13h5.85l4.12-8.7,7.68,8.7h7.09l-12.29-13.92,8.24-17.37,12.68,14.36-8,16.93h5.86l6-12.62L1088,846.66h8.2l7.85-16.55,12.68,14.35-1,2.2h10.07l-2.74-3.11,8.24-17.37,12.68,14.35-2.91,6.13h5.85l.86-1.82,1.61,1.82h7.08l-6.21-7,8.24-17.38,12.68,14.36-4.77,10h5.85l2.72-5.74,5.07,5.74h7.08l-9.68-11,8.25-17.38,12.67,14.36-6.63,14h5.85l4.59-9.68,8.54,9.68h12.21l6.45-13.6,12,13.6h7.09l-.14-.15,8.25-17.38,12.67,14.35-1.5,3.18h11.39l-3.61-4.08,8.25-17.38,12.67,14.36-3.36,7.1h5.84l1.33-2.8,2.46,2.8h7.08l-7.07-8,8.25-17.37,12.67,14.35-5.23,11h5.85l3.19-6.72,5.93,6.72h7.08l-10.54-11.94,8.25-17.37,12.67,14.35-7.1,15h5.85l5-10.65,9.4,10.65h10.89l6.91-14.58,12.68,14.36-.1.22h7.37l-1-1.13,8.24-17.38,12.68,14.36-2,4.15h12.72L1428,841.6l8.24-17.37,12.68,14.35-3.83,8.08h5.84l1.79-3.77,3.33,3.77h7.08l-7.93-9,8.24-17.37,12.68,14.36-5.7,12h5.85l3.65-7.69,6.79,7.69h7.09l-11.4-12.91,8.24-17.38,12.68,14.36-7.56,15.93h5.84l5.52-11.62,10.26,11.62h9.56l7.38-15.55L1547,845.46l-.56,1.2h8.7l-1.85-2.11Zm-121.82-63.63,12.68,14.36-8.25,17.37-12.67-14.35Zm-16.48-18.66,12.68,14.35-8.25,17.38-12.67-14.36ZM1414,764.31l12.68,14.36L1418.39,796l-12.67-14.36Zm-16.48-18.67L1410.16,760l-8.25,17.37L1389.24,763Zm-509.35,5.57,8.25-17.37,12.67,14.35-8.24,17.37Zm10.2,19.57-8.24,17.37L877.42,773.8l8.24-17.37Zm14.53-18.28,12.67,14.35-8.24,17.38-12.68-14.36Zm330.81-15.41L1231,722.74l8.25-17.37,12.67,14.35ZM1255.73,724l12.67,14.36-8.24,17.37-12.68-14.36Zm-14.53,18.28L1233,759.68l-12.68-14.35,8.25-17.37ZM1216.48,741l-12.68-14.35,8.24-17.38,12.68,14.36Zm-2.48,5.22-8.24,17.37-12.68-14.35,8.24-17.38Zm-14-23.88L1187.32,708l8.24-17.37L1208.24,705Zm-2.48,5.22L1189.28,745l-12.68-14.36,8.24-17.37Zm-24.72-1.29-12.68-14.36,8.25-17.37L1181,708.91Zm-2.48,5.21-8.24,17.38-12.68-14.35,8.25-17.38Zm-24.72-1.28-12.68-14.36,8.25-17.37,12.67,14.35Zm-2.47,5.21-8.25,17.38-12.67-14.36,8.24-17.37Zm-14-23.88-12.68-14.35,8.24-17.38,12.68,14.36Zm-2.48,5.22-8.24,17.37-12.67-14.35,8.24-17.38Zm-10.72,22.59-8.24,17.37L1095,742.38l8.24-17.38Zm-14-23.88-12.68-14.36,8.25-17.37,12.67,14.36Zm-2.47,5.22-8.25,17.37-12.67-14.35,8.24-17.38Zm-10.72,22.59-8.25,17.37-12.67-14.35,8.24-17.38Zm-14-23.88-12.67-14.36,8.24-17.37L1083,702Zm-2.47,5.22L1064,742l-12.67-14.36,8.24-17.37Zm-24.73-1.3L1034.85,709l8.24-17.37L1055.77,706Zm-2.47,5.22-8.25,17.38-12.67-14.36,8.24-17.37Zm-24.73-1.29-12.67-14.35,8.24-17.38,12.68,14.36Zm-2.48,5.22-8.24,17.38L996.93,735.5l8.24-17.38Zm-24.72-1.29-12.67-14.35,8.24-17.38,12.68,14.36Zm-2.47,5.22-8.24,17.37-12.68-14.36L978,722.05Zm-24.72-1.29-12.68-14.36,8.24-17.37,12.68,14.35Zm-2.48,5.22-8.24,17.37-12.68-14.36L950.77,726ZM938.73,739l-12.68-14.35,8.25-17.37L947,721.67Zm-2.48,5.22L928,761.64l-12.68-14.36,8.25-17.37Zm-6.92,26.9L942,785.52l-8.24,17.37-12.68-14.36Zm2.48-5.22,8.25-17.37,12.67,14.36-8.24,17.37Zm24.73,1.29,12.67,14.36L961,799l-12.68-14.36ZM959,762l8.24-17.38L979.93,759l-8.24,17.37Zm24.72,1.29,12.68,14.35L988.17,795l-12.68-14.35Zm2.48-5.22,8.24-17.37,12.68,14.35-8.24,17.37Zm24.72,1.29,12.68,14.36-8.24,17.37-12.68-14.36Zm2.48-5.22,8.24-17.37,12.68,14.35-8.24,17.38Zm24.72,1.29,12.68,14.36-8.24,17.37-12.68-14.35Zm2.48-5.21,8.24-17.38,12.68,14.36-8.25,17.37Zm24.72,1.28L1078,765.88l-8.25,17.37-12.67-14.35Zm16.48,18.67,12.68,14.35-8.25,17.38-12.67-14.36Zm2.47-5.22,8.25-17.37L1105.21,762,1097,779.33Zm24.73,1.29,12.68,14.35L1113.44,798l-12.67-14.35Zm2.48-5.22,8.24-17.37L1132.4,758l-8.24,17.38Zm24.72,1.29,12.67,14.36-8.24,17.37L1128,779.71Zm2.48-5.21,8.24-17.38,12.67,14.36-8.24,17.37Zm24.72,1.28,12.67,14.36-8.24,17.37-12.67-14.35Zm2.47-5.21,8.25-17.38,12.67,14.36-8.24,17.37Zm24.73,1.29,12.67,14.35L1195,786.21l-12.67-14.36Zm16.48,18.66,12.67,14.35-8.24,17.38-12.67-14.35Zm2.47-5.22,8.25-17.37,12.67,14.35-8.24,17.38Zm24.72,1.29L1247,783.57l-8.24,17.37L1226,786.59Zm2.48-5.22,8.24-17.37L1257.68,761l-8.24,17.37Zm24.72,1.29,12.68,14.36L1265.92,797l-12.68-14.35Zm2.48-5.21,8.24-17.38,12.68,14.36-8.24,17.38Zm10.72-22.6,8.24-17.37,12.68,14.36-8.24,17.37Zm14,23.89,12.67,14.35-8.24,17.38-12.68-14.36Zm2.47-5.22,8.24-17.37,12.68,14.35-8.25,17.37Zm24.72,1.29,12.68,14.35-8.24,17.38-12.68-14.36Zm2.48-5.22,8.24-17.37,12.68,14.35L1331,766.57Zm24.72,1.29,12.68,14.36-8.25,17.37-12.67-14.35Zm16.48,18.66,12.68,14.36L1364,803.89l-12.67-14.35ZM1362,767l8.24-17.38L1383,763.93l-8.25,17.37Zm24.72,1.29,12.68,14.35L1391.19,800l-12.67-14.36ZM1381,727l12.68,14.36-8.25,17.37-12.67-14.35Zm-16.48-18.66,12.68,14.35L1369,740.05l-12.67-14.36Zm-10.72,22.59,12.68,14.35-8.25,17.38-12.67-14.36Zm-16.48-18.66L1350,726.6,1341.75,744l-12.67-14.35Zm-16.48-18.67,12.68,14.36-8.25,17.37L1312.6,711Zm-10.72,22.59,12.68,14.36-8.25,17.37-12.67-14.35Zm-16.48-18.66,12.68,14.36-8.24,17.37-12.68-14.36Zm-16.48-18.66,12.68,14.35-8.25,17.37-12.67-14.35Zm-10.72,22.59,12.68,14.35-8.24,17.38-12.68-14.36ZM1250,682.77l12.68,14.36-8.25,17.37-12.67-14.35Zm-16.48-18.66,12.68,14.36-8.24,17.37-12.68-14.36Zm-10.71,22.59,12.67,14.36-8.24,17.37-12.68-14.36ZM1206.28,668,1219,682.39l-8.24,17.38L1198,685.41Zm-16.48-18.66,12.68,14.35-8.24,17.37-12.68-14.35ZM1179.09,672l12.67,14.35-8.25,17.37-12.67-14.35Zm-16.48-18.67,12.67,14.36L1167,685l-12.68-14.35Zm-10.72,22.59,12.67,14.36-8.24,17.37-12.68-14.35Zm-16.48-18.66,12.67,14.36L1139.84,689l-12.68-14.36Zm-16.48-18.66,12.67,14.35-8.24,17.38-12.68-14.36Zm-10.72,22.59,12.67,14.36-8.24,17.37L1100,678.53Zm-16.48-18.66,12.67,14.35-8.24,17.38-12.68-14.36ZM1081,665.09l12.67,14.35-8.24,17.38-12.68-14.36Zm-16.48-18.67,12.67,14.36L1069,678.15l-12.68-14.35ZM1053.81,669l12.68,14.36-8.25,17.37-12.67-14.35Zm-16.48-18.66L1050,664.71l-8.24,17.37-12.68-14.36Zm-10.72,22.59,12.68,14.36L1031,704.67l-12.67-14.35Zm-16.48-18.66,12.68,14.36L1014.56,686l-12.67-14.36Zm-10.72,22.59,12.68,14.36-8.25,17.37-12.67-14.36Zm-16.48-18.66,12.68,14.35-8.25,17.38-12.67-14.36ZM972.21,680.8l12.68,14.35-8.25,17.38L964,698.17Zm-16.48-18.67,12.68,14.36-8.25,17.37-12.67-14.35ZM945,684.73l12.68,14.35-8.25,17.37L936.77,702.1Zm-16.48-18.67,12.68,14.36L933,697.79l-12.68-14.36Zm-10.72,22.59L930.49,703l-8.24,17.37L909.57,706ZM907.1,711.24l12.67,14.36L911.53,743l-12.68-14.35Zm-16.49-18.66,12.68,14.36-8.24,17.37L882.37,710ZM879.9,715.17l12.67,14.36-8.24,17.37-12.68-14.36Zm-10.72,22.59,12.67,14.36-8.24,17.37-12.68-14.36Zm2,37-8.25,17.37-12.68-14.35,8.25-17.38ZM852.7,719.1l12.67,14.36-8.24,17.37-12.67-14.36ZM842,741.69l12.67,14.36-8.24,17.37-12.67-14.36Zm-10.72,22.59,12.68,14.36L835.69,796,823,781.66Zm-27.2,3.93,12.68,14.36-8.25,17.37-12.67-14.35Zm-33.48,58.25L757.9,812.1l8.24-17.37,12.68,14.35Zm16.48,18.66-12.68-14.35,8.24-17.37,12.68,14.35Zm10.72-22.59L785.1,808.18l8.24-17.37L806,805.16Zm16.47,18.66-12.67-14.35,8.24-17.37,12.68,14.35ZM825,818.6,812.3,804.25l8.24-17.38,12.68,14.36Zm16.48,18.67-12.67-14.36L837,805.54l12.68,14.35Zm10.72-22.59L839.5,800.32l8.24-17.38,12.68,14.36Zm16.48,18.66L856,819l8.24-17.37L876.9,816Zm10.72-22.59L866.7,796.39,874.94,779l12.68,14.35Zm16.48,18.66-12.67-14.35,8.24-17.38L904.09,812Zm10.72-22.59-12.68-14.35,8.25-17.38,12.67,14.36Zm16.48,18.66-12.68-14.36,8.25-17.37,12.68,14.36Zm16.48,18.67-12.68-14.36,8.25-17.37,12.67,14.35Zm10.72-22.6L937.57,807.2l8.25-17.37,12.67,14.35Zm16.48,18.67-12.68-14.36,8.25-17.37L975,822.84Zm10.72-22.59-12.68-14.36L973,785.9l12.67,14.35Zm16.48,18.66-12.68-14.35,8.25-17.38,12.67,14.36Zm10.72-22.59L992,799.34l8.24-17.37,12.68,14.36Zm16.48,18.67L1008.45,818l8.25-17.38L1029.37,815Zm10.72-22.6-12.68-14.35,8.24-17.38,12.68,14.36Zm16.48,18.66-12.68-14.35,8.24-17.37,12.68,14.35ZM1059,805.85l-12.67-14.36,8.24-17.38,12.68,14.36Zm16.48,18.66-12.67-14.36,8.24-17.37,12.68,14.35ZM1092,843.17l-12.67-14.35,8.24-17.38,12.68,14.36Zm10.73-22.59-12.68-14.35,8.24-17.38L1111,803.21Zm16.47,18.66-12.67-14.35,8.24-17.38,12.68,14.36Zm10.72-22.59-12.67-14.35,8.24-17.38,12.67,14.36Zm16.48,18.67L1133.73,821l8.24-17.37,12.68,14.35Zm10.72-22.59-12.68-14.36,8.25-17.38,12.68,14.36Zm16.48,18.66L1160.92,817l8.25-17.37L1181.84,814Zm10.72-22.59-12.67-14.36,8.24-17.37,12.67,14.36Zm16.48,18.66-12.67-14.35,8.24-17.38L1209,810.09Zm16.48,18.66-12.67-14.35,8.24-17.37,12.67,14.35ZM1228,823.53l-12.68-14.35,8.25-17.38,12.67,14.36Zm16.48,18.67-12.68-14.36,8.25-17.37,12.67,14.35Zm10.72-22.6-12.68-14.35,8.25-17.38,12.68,14.36Zm16.48,18.67L1259,823.91l8.25-17.37,12.67,14.35Zm10.72-22.6-12.68-14.35L1278,784l12.68,14.35Zm16.48,18.67L1286.2,820l8.25-17.37L1307.12,817Zm10.72-22.59-12.68-14.35,8.24-17.38,12.68,14.35Zm16.48,18.66-12.68-14.35,8.24-17.38L1334.32,813Zm10.72-22.59-12.68-14.36,8.24-17.37L1345,790.45Zm16.48,18.66-12.68-14.35,8.24-17.37,12.68,14.35Zm16.48,18.67-12.68-14.36,8.24-17.37L1378,827.77Zm10.71-22.59L1367.8,808.2l8.24-17.37,12.68,14.35ZM1397,841.22l-12.68-14.35,8.24-17.38,12.68,14.36Zm10.71-22.59L1395,804.27l8.24-17.37,12.68,14.35Zm16.48,18.66-12.67-14.35,8.24-17.38,12.67,14.36Zm10.72-22.59-12.67-14.35,8.24-17.38,12.67,14.36Zm16.48,18.67L1438.68,819l8.24-17.37L1459.59,816Zm10.72-22.59-12.67-14.36,8.24-17.38,12.68,14.36Zm16.48,18.66-12.67-14.36,8.24-17.37,12.68,14.36Zm10.72-22.59-12.67-14.36,8.24-17.37,12.68,14.35Zm16.48,18.66-12.67-14.35,8.24-17.38L1514,808.13Zm16.48,18.66-12.68-14.35,8.25-17.38,12.67,14.36Z"/><path class="cls-4" d="M1499.5,765.36c.47,18-18.5,57-34.78,83.53h18.52c14-24,39.23-72.42,29.88-95.11-3.34-8.07-9-10-12.13-10.36-11.44-1.49-23.6,12.7-26.75,16.89l14.58,8.66c1.92-2.57,4.76-5.65,7.16-7.09C1499.75,759.63,1499.45,763.27,1499.5,765.36Z"/><path class="cls-4" d="M1374.38,848.89C1398.5,796.61,1428,742,1440.27,731.81c.41,3.26-3.74,8-3.75,8l14.24,8.73c4.46-6.33,10-21-1.14-31.15a11.49,11.49,0,0,0-10.4-2.78c-21.1,4.45-63.19,92.16-82.29,134.26Z"/><path class="cls-4" d="M1276.27,848.89c39.65-75.71,88.19-154.64,101.88-157.21,5.44-.23,7.76,1.8,9.12,3.23,4.17,4.4,6.17,10.93,5.44,24l15.84,7.29c1-18-2.43-34.49-9.88-42.38-5.19-5.49-12.42-8.36-20.8-8.16-6.7.11-20.65.37-73.71,90.5-20.91,35.51-39.78,71.28-45.78,82.78Z"/><path class="cls-4" d="M1361.43,684.64c-8.41-9.89-30.67-32.71-57-32.71h-.19c-11.56.05-29.63,12.23-76,102.26-20.65,40.11-39.24,81.1-45.27,94.7h17.25c26.34-59.7,86.33-178.86,104.06-180.88h.12c21.54,0,41.39,22.56,46.62,29A34.6,34.6,0,0,1,1361.43,684.64Z"/><path class="cls-4" d="M1294.85,656c-14.07-11.26-44.81-32.54-70.6-27.07-6.83,1.45-22.8,4.85-68.21,117-17.91,44.26-33.49,88.44-38.52,102.93h16.74c33.65-97,77.71-200.16,93.22-204.23,17.26-3.65,41.35,11.31,55.72,22.46A33.53,33.53,0,0,1,1294.85,656Z"/><path class="cls-4" d="M1223.71,630.16c-21-15-47-21.41-68.52-16-33.36,8.44-80.27,175-96.07,234.72h16.37C1103.27,745,1142.19,634,1159,629.78c15.29-3.87,34.36.25,50.61,10.13A33.18,33.18,0,0,1,1223.71,630.16Z"/><path class="cls-4" d="M1151.07,617a156.94,156.94,0,0,0-51.14-8.88h-.39c-51.63.15-85.7,188.36-94.18,240.73h16c15.78-96.15,49.29-224.57,78.19-224.65h.35a139.34,139.34,0,0,1,38.19,5.57A33.74,33.74,0,0,1,1151.07,617Z"/><path class="cls-4" d="M1088.76,612.68c-9.81-1.74-25-3.52-48.6-4.52-26.69-1.09-46.92,38.86-63.88,125.8-9.44,48.32-14.8,97.29-16.58,114.93h15.86c9.28-96.77,34.61-225.94,63.94-224.66,14.37.61,25.33,1.5,33.66,2.43A33.59,33.59,0,0,1,1088.76,612.68Z"/><path class="cls-4" d="M1023.53,615.23c-9.48-1.73-24-2.62-45.31.14-49.13,6.38-57.58,182-59,233.52h15.83c2.51-90.79,17.72-214,45.17-217.57a164.79,164.79,0,0,1,29.67-1.45A34.18,34.18,0,0,1,1023.53,615.23Z"/><path class="cls-4" d="M962.91,626.24c-8,.13-19.16,1.35-34.62,4.9-37.65,8.62-51.24,158-55.17,217.75H889c6.45-95.91,24.09-197.78,42.79-202.07a202.35,202.35,0,0,1,20.08-3.64A36.56,36.56,0,0,1,962.91,626.24Z"/><path class="cls-4" d="M917.83,638.41a168.49,168.49,0,0,0-26.93,4.35c-47.73,11.31-54,160.3-54.77,206.13H852c1.37-77.73,15-183.94,42.54-190.47a83.77,83.77,0,0,1,12.31-1.95A55.31,55.31,0,0,1,917.83,638.41Z"/><path class="cls-4" d="M882,678.48l5.16,6.64s7.73-4.7,12.4-7L885.86,662.9c-1.05-.27-25.84-6.32-48.09,22-17.89,22.75-31.39,129.56-35.34,164h15.91c6.44-55.69,19.59-138.48,31.77-154C865.74,675.06,881.41,678.36,882,678.48Z"/><path class="cls-4" d="M776.92,848.89c15.12-64.34,45.46-149.78,68.29-145.72l2.73-15.84c-45.19-7.92-78.35,122.46-87.26,161.56Z"/><path class="cls-4" d="M743.92,848.89c12.76-34.32,42.15-98.46,71.34-104.69L812,728.47c-42.93,9.16-76.48,96.45-85,120.42Z"/><rect class="cls-5" x="482.04" y="843.12" width="1106.48" height="24.4"/></g></g></svg>